<svg id="amazonpay" xmlns="http://www.w3.org/2000/svg" xmlns:xlink="http://www.w3.org/1999/xlink" width="70" height="49.604" viewBox="0 0 70 49.604">
  <defs>
    <clipPath id="clip-path">
      <rect id="Rectangle_176" data-name="Rectangle 176" width="70" height="49.604" fill="none"/>
    </clipPath>
  </defs>
  <rect id="Rectangle_174" data-name="Rectangle 174" width="70" height="49.604" fill="#eaeded"/>
  <g id="Group_184" data-name="Group 184">
    <g id="Group_183" data-name="Group 183" clip-path="url(#clip-path)">
      <path id="Path_144" data-name="Path 144" d="M57.09,44.72a24.437,24.437,0,0,1-13.8,4.218,24.97,24.97,0,0,1-16.855-6.43c-.349-.316-.038-.746.382-.5A33.925,33.925,0,0,0,43.684,46.48a33.549,33.549,0,0,0,12.864-2.633C57.178,43.58,57.708,44.263,57.09,44.72Z" transform="translate(-14.213 -22.673)" fill="#f79c34"/>
      <path id="Path_145" data-name="Path 145" d="M91.241,42.157c-.478-.611-3.154-.289-4.357-.145-.364.044-.421-.275-.092-.505,2.136-1.5,5.635-1.067,6.042-.564s-.108,4.015-2.109,5.689c-.309.257-.6.12-.465-.22.451-1.125,1.459-3.643.981-4.255" transform="translate(-46.811 -21.884)" fill="#f79c34"/>
      <path id="Path_146" data-name="Path 146" d="M86.993,17.5V16.043a.36.36,0,0,1,.369-.369H93.9a.364.364,0,0,1,.377.367v1.25a2.059,2.059,0,0,1-.492.918L90.4,23.041a7.25,7.25,0,0,1,3.726.8.666.666,0,0,1,.347.569v1.555c0,.214-.234.462-.481.333a7.525,7.525,0,0,0-6.9.012c-.227.121-.464-.124-.464-.338V24.494a1.756,1.756,0,0,1,.243-1l3.92-5.625H87.371A.363.363,0,0,1,86.993,17.5Z" transform="translate(-46.836 -8.475)" fill="#333e47"/>
      <path id="Path_147" data-name="Path 147" d="M32.789,26.384H30.8a.374.374,0,0,1-.356-.336l0-10.2a.374.374,0,0,1,.384-.367h1.851a.374.374,0,0,1,.361.343v1.332h.038a2.73,2.73,0,0,1,5.195,0,2.935,2.935,0,0,1,5.046-.773c.631.859.5,2.1.5,3.2l0,6.437a.375.375,0,0,1-.383.367H41.453a.372.372,0,0,1-.357-.366V20.61a12.986,12.986,0,0,0-.056-1.91,1.035,1.035,0,0,0-1.168-.881,1.318,1.318,0,0,0-1.188.837A6.165,6.165,0,0,0,38.5,20.61v5.407a.375.375,0,0,1-.383.367H36.129a.373.373,0,0,1-.357-.366l0-5.408c0-1.138.186-2.811-1.224-2.811-1.429,0-1.373,1.631-1.373,2.811v5.407a.375.375,0,0,1-.383.367" transform="translate(-16.462 -8.254)" fill="#333e47"/>
      <path id="Path_148" data-name="Path 148" d="M110.261,15.265c-2.877,0-4.472,2.468-4.472,5.646,0,3.155,1.577,5.688,4.472,5.688,2.782,0,4.545-2.469,4.545-5.58,0-3.22-1.6-5.753-4.545-5.753m0,9.23c-1.558,0-1.54-2.662-1.54-3.907s.093-3.24,1.558-3.24a1.244,1.244,0,0,1,1.3.987,9.447,9.447,0,0,1,.3,2.7c0,1.309-.074,3.456-1.614,3.456" transform="translate(-57.2 -8.254)" fill="#333e47"/>
      <path id="Path_149" data-name="Path 149" d="M130.995,26.384h-1.98a.373.373,0,0,1-.356-.366l0-10.2a.377.377,0,0,1,.382-.333h1.844a.377.377,0,0,1,.353.285v1.56h.037a2.7,2.7,0,0,1,2.708-2.06,2.605,2.605,0,0,1,2.319,1.2,6.49,6.49,0,0,1,.519,3.177v6.419a.376.376,0,0,1-.381.321h-1.992a.375.375,0,0,1-.354-.321V20.524c0-1.117.13-2.748-1.243-2.748a1.3,1.3,0,0,0-1.15.815,4.538,4.538,0,0,0-.316,1.933v5.493A.38.38,0,0,1,130.995,26.384Z" transform="translate(-69.564 -8.254)" fill="#333e47"/>
      <path id="Path_150" data-name="Path 150" d="M72.737,24.4a2.713,2.713,0,0,1-.75-1.842v-3.1c0-1.313.094-2.517-.873-3.421a4.472,4.472,0,0,0-2.925-.989h-.147c-1.87.02-3.928.738-4.366,3.042a.35.35,0,0,0,.3.416l1.927.209a.421.421,0,0,0,.345-.366,1.514,1.514,0,0,1,1.6-1.193,1.328,1.328,0,0,1,1.116.517,2.545,2.545,0,0,1,.242,1.441v.258a13.725,13.725,0,0,0-3.737.688,3.376,3.376,0,0,0-2.12,3.248,2.821,2.821,0,0,0,2.974,3.1,3.939,3.939,0,0,0,3.277-1.444,4.837,4.837,0,0,0,1.139,1.325.411.411,0,0,0,.469-.046l.006,0c.4-.354,1.117-.98,1.523-1.32a.374.374,0,0,0,.006-.529m-3.91-.893a1.615,1.615,0,0,1-1.376.9c-.762,0-1.208-.581-1.208-1.441,0-1.693,1.518-2,2.956-2V21.4a3.9,3.9,0,0,1-.372,2.108" transform="translate(-34.249 -8.138)" fill="#333e47"/>
      <path id="Path_151" data-name="Path 151" d="M16.012,24.4a2.713,2.713,0,0,1-.751-1.842v-3.1c0-1.313.094-2.517-.873-3.421a4.472,4.472,0,0,0-2.926-.989h-.147c-1.87.02-3.929.738-4.365,3.042a.35.35,0,0,0,.3.416l1.926.209a.421.421,0,0,0,.346-.366,1.512,1.512,0,0,1,1.6-1.193,1.327,1.327,0,0,1,1.115.517,2.541,2.541,0,0,1,.242,1.441v.258a13.725,13.725,0,0,0-3.736.688,3.374,3.374,0,0,0-2.12,3.248,2.821,2.821,0,0,0,2.975,3.1,3.939,3.939,0,0,0,3.276-1.444,4.824,4.824,0,0,0,1.14,1.325.412.412,0,0,0,.469-.046l0,0c.4-.354,1.118-.98,1.524-1.32a.376.376,0,0,0,.006-.529M12.1,23.505a1.614,1.614,0,0,1-1.376.9c-.762,0-1.208-.581-1.208-1.441,0-1.693,1.518-2,2.956-2V21.4a3.9,3.9,0,0,1-.372,2.108" transform="translate(-3.578 -8.138)" fill="#333e47"/>
      <path id="Path_152" data-name="Path 152" d="M123.884,78.168v-.78c0-.222.109-.375.34-.361a4.847,4.847,0,0,0,1.478.034,1.716,1.716,0,0,0,1.214-1.07c.339-.775.563-1.4.7-1.811l-4.3-10.659c-.073-.181-.094-.517.267-.517h1.5a.469.469,0,0,1,.468.361l3.12,8.66,2.979-8.66a.469.469,0,0,1,.467-.361h1.419c.359,0,.339.336.267.517l-4.269,10.993c-.552,1.463-1.288,3.794-2.945,4.2a4.364,4.364,0,0,1-2.495-.119A.486.486,0,0,1,123.884,78.168Z" transform="translate(-66.655 -34.066)" fill="#333e47"/>
      <path id="Path_153" data-name="Path 153" d="M105.621,62.273a10.694,10.694,0,0,0-3.738.722.514.514,0,0,0-.354.449v.829a.325.325,0,0,0,.339.354,10.984,10.984,0,0,1,3.547-.6c1.64,0,2.262.639,2.262,2.117v1.453a10.063,10.063,0,0,0-2.825-.372,4.241,4.241,0,0,0-3.233,1.238,3.3,3.3,0,0,0-.837,2.289,3.112,3.112,0,0,0,1.349,2.69,4.362,4.362,0,0,0,3.9.184,6.2,6.2,0,0,0,1.735-1.027l.107.722a.414.414,0,0,0,.415.361h1.061a.362.362,0,0,0,.362-.361V65.573c0-2.877-2.224-3.3-4.1-3.3m2.056,8.921a4.8,4.8,0,0,1-1.845.947,2.741,2.741,0,0,1-2.2-.1,1.661,1.661,0,0,1-.673-1.458,1.812,1.812,0,0,1,.447-1.243,2.713,2.713,0,0,1,1.921-.614,11.315,11.315,0,0,1,2.346.276Z" transform="translate(-54.494 -33.671)" fill="#333e47"/>
      <path id="Path_154" data-name="Path 154" d="M80.908,62.288a5.586,5.586,0,0,0-3.579,1.484L77.214,63a.414.414,0,0,0-.414-.361H75.712a.362.362,0,0,0-.361.361V77.8a.362.362,0,0,0,.361.361h1.421a.362.362,0,0,0,.361-.361V72.689a4.984,4.984,0,0,0,3.327,1.266c2.977,0,4.737-2.578,4.737-5.785,0-3-1.151-5.882-4.65-5.882m1.422,9.177a2.679,2.679,0,0,1-2.1.694,5.1,5.1,0,0,1-2.733-1.034V65.067a4.868,4.868,0,0,1,2.831-1c2.353,0,2.995,1.851,2.995,3.97a4.766,4.766,0,0,1-.989,3.432" transform="translate(-40.743 -33.679)" fill="#333e47"/>
      <rect id="Rectangle_175" data-name="Rectangle 175" width="70" height="2.626" transform="translate(0 46.963)" fill="#f79c34"/>
    </g>
  </g>
</svg>
