<svg id="amex" xmlns="http://www.w3.org/2000/svg" xmlns:xlink="http://www.w3.org/1999/xlink" width="70" height="49.604" viewBox="0 0 70 49.604">
  <defs>
    <clipPath id="clip-path">
      <rect id="Rectangle_171" data-name="Rectangle 171" width="70" height="49.604" fill="none"/>
    </clipPath>
  </defs>
  <g id="Group_179" data-name="Group 179" opacity="0.8">
    <rect id="Rectangle_169" data-name="Rectangle 169" width="70" height="49.604" fill="#fff"/>
    <path id="Path_126" data-name="Path 126" d="M0,0V49.6H70V0Z" fill="#016fd0"/>
    <g id="Group_178" data-name="Group 178">
      <g id="Group_177" data-name="Group 177" clip-path="url(#clip-path)">
        <path id="Path_127" data-name="Path 127" d="M29.586,71.061V60.071H41.222L42.471,61.7l1.29-1.627H86V70.3a4.879,4.879,0,0,1-2.382.758H60.228L58.82,69.328v1.732H54.208V68.1a3.872,3.872,0,0,1-1.992.412h-1.57v2.545H43.662L42.415,69.4l-1.266,1.662Z" transform="translate(-15.997 -32.481)" fill="#fff"/>
        <path id="Path_128" data-name="Path 128" d="M0,34.834l2.624-6.117H7.162l1.489,3.427V28.717h5.641l.886,2.477.859-2.477H41.361v1.245a5.463,5.463,0,0,1,3.519-1.245l8.216.028,1.463,3.382v-3.41H59.28l1.3,1.942V28.717h4.764v10.99H60.58l-1.245-1.949v1.949H52.4l-.7-1.732H49.837l-.686,1.732h-4.7a4.649,4.649,0,0,1-3.086-1.22v1.22H34.269l-1.407-1.732v1.732H6.49l-.7-1.732H3.934l-.692,1.732H0Z" transform="translate(0 -15.527)" fill="#fff"/>
        <path id="Path_129" data-name="Path 129" d="M3.568,31.666.029,39.9h2.3l.653-1.648h3.8L7.432,39.9H9.788L6.252,31.666Zm1.309,1.915,1.157,2.879H3.717Z" transform="translate(-0.016 -17.122)" fill="#016fd0"/>
        <path id="Path_130" data-name="Path 130" d="M21.806,39.892V31.664l3.274.012,1.9,5.306,1.859-5.318h3.248v8.229H30.035V33.829l-2.181,6.063h-1.8l-2.187-6.063v6.063Z" transform="translate(-11.791 -17.121)" fill="#016fd0"/>
        <path id="Path_131" data-name="Path 131" d="M47.266,39.892V31.664h6.713V33.5H49.345v1.408h4.526v1.732H49.345v1.461h4.634v1.787Z" transform="translate(-25.557 -17.121)" fill="#016fd0"/>
        <path id="Path_132" data-name="Path 132" d="M64.475,31.666V39.9h2.057V36.972H67.4L69.865,39.9h2.514l-2.707-3.032a2.506,2.506,0,0,0,2.257-2.528,2.662,2.662,0,0,0-2.876-2.67Zm2.057,1.841h2.352a.945.945,0,0,1,.975.866.93.93,0,0,1-.944.866H66.532Z" transform="translate(-34.862 -17.122)" fill="#016fd0"/>
        <rect id="Rectangle_170" data-name="Rectangle 170" width="2.101" height="8.229" transform="translate(37.907 14.543)" fill="#016fd0"/>
        <path id="Path_133" data-name="Path 133" d="M93.266,39.893h-.453c-2.194,0-3.526-1.728-3.526-4.08,0-2.41,1.317-4.148,4.087-4.148h2.274v1.949H93.292a1.98,1.98,0,0,0-1.92,2.22,2.015,2.015,0,0,0,2.22,2.263h.542Z" transform="translate(-48.278 -17.121)" fill="#016fd0"/>
        <path id="Path_134" data-name="Path 134" d="M103.53,31.666,99.991,39.9h2.3l.653-1.648h3.8l.649,1.648h2.355l-3.536-8.229Zm1.309,1.915L106,36.461h-2.318Z" transform="translate(-54.065 -17.122)" fill="#016fd0"/>
        <path id="Path_135" data-name="Path 135" d="M121.76,39.892V31.664h2.615l3.34,5.17v-5.17h2.057v8.229h-2.531l-3.424-5.305v5.305Z" transform="translate(-65.836 -17.121)" fill="#016fd0"/>
        <path id="Path_136" data-name="Path 136" d="M32.65,71.246V63.016h6.713v1.841H34.729v1.408h4.526V68H34.729v1.461h4.634v1.787Z" transform="translate(-17.654 -34.073)" fill="#016fd0"/>
        <path id="Path_137" data-name="Path 137" d="M104.268,71.246V63.016h6.713v1.841h-4.634v1.408h4.5V68h-4.5v1.461h4.634v1.787Z" transform="translate(-56.378 -34.073)" fill="#016fd0"/>
        <path id="Path_138" data-name="Path 138" d="M47.742,71.246l3.269-4.064-3.346-4.165h2.592l1.993,2.575,2-2.575h2.49l-3.3,4.114,3.274,4.114H54.12l-1.935-2.534L50.3,71.246Z" transform="translate(-25.772 -34.074)" fill="#016fd0"/>
        <path id="Path_139" data-name="Path 139" d="M67.894,63.02v8.229h2.111v-2.6h2.165c1.832,0,3.221-.972,3.221-2.862a2.708,2.708,0,0,0-2.954-2.768Zm2.111,1.861h2.28a.929.929,0,0,1,1.015.948.949.949,0,0,1-1.022.948H70.005Z" transform="translate(-36.711 -34.075)" fill="#016fd0"/>
        <path id="Path_140" data-name="Path 140" d="M86.163,63.017v8.229h2.058V68.323h.866l2.466,2.923h2.514L91.36,68.214a2.506,2.506,0,0,0,2.257-2.528,2.662,2.662,0,0,0-2.876-2.67Zm2.058,1.841h2.351a.944.944,0,0,1,.975.866.93.93,0,0,1-.944.866H88.221Z" transform="translate(-46.589 -34.074)" fill="#016fd0"/>
        <path id="Path_141" data-name="Path 141" d="M120.651,71.246V69.459h4.117c.609,0,.873-.329.873-.69,0-.346-.263-.7-.873-.7h-1.86a2.3,2.3,0,0,1-2.518-2.465c0-1.32.825-2.592,3.228-2.592h4.006l-.866,1.851h-3.465c-.662,0-.866.348-.866.679a.717.717,0,0,0,.758.717h1.949a2.257,2.257,0,0,1,2.585,2.362,2.467,2.467,0,0,1-2.683,2.619Z" transform="translate(-65.095 -34.074)" fill="#016fd0"/>
        <path id="Path_142" data-name="Path 142" d="M137.09,71.246V69.459h3.943c.609,0,.873-.329.873-.69,0-.346-.263-.7-.873-.7h-1.687a2.3,2.3,0,0,1-2.518-2.465c0-1.32.825-2.592,3.228-2.592h3.927l-.866,1.851h-3.385c-.662,0-.866.348-.866.679a.717.717,0,0,0,.758.717H141.4a2.258,2.258,0,0,1,2.585,2.362,2.467,2.467,0,0,1-2.683,2.619Z" transform="translate(-73.984 -34.074)" fill="#016fd0"/>
      </g>
    </g>
  </g>
</svg>
