<svg id="klarna" xmlns="http://www.w3.org/2000/svg" xmlns:xlink="http://www.w3.org/1999/xlink" width="70" height="49.604" viewBox="0 0 70 49.604">
  <defs>
    <clipPath id="clip-path">
      <rect id="Rectangle_177" data-name="Rectangle 177" width="70" height="49.604" fill="none"/>
    </clipPath>
  </defs>
  <g id="Group_186" data-name="Group 186" clip-path="url(#clip-path)">
    <path id="Path_155" data-name="Path 155" d="M6.721,11.665H63.278A6.722,6.722,0,0,1,70,18.386V43.832a6.722,6.722,0,0,1-6.722,6.722H6.721A6.722,6.722,0,0,1,0,43.832V18.386a6.721,6.721,0,0,1,6.721-6.721" transform="translate(0 -6.307)" fill="#ffb3c7"/>
    <path id="Path_156" data-name="Path 156" d="M71.54,49.83A1.673,1.673,0,1,0,73.2,51.5,1.666,1.666,0,0,0,71.54,49.83m-5.456-1.294a2.4,2.4,0,1,0-2.394,2.291,2.344,2.344,0,0,0,2.394-2.291m.009-4.452h2.642v8.9H66.093v-.569a4.6,4.6,0,0,1-2.619.816,4.7,4.7,0,0,1,0-9.4,4.6,4.6,0,0,1,2.619.816ZM44.95,45.244v-1.16H42.245v8.9h2.711V48.831c0-1.4,1.506-2.156,2.552-2.156h.031V44.085A3.283,3.283,0,0,0,44.95,45.244Zm-6.738,3.292a2.4,2.4,0,1,0-2.394,2.291,2.344,2.344,0,0,0,2.394-2.291m.009-4.452h2.642v8.9H38.22v-.569a4.6,4.6,0,0,1-2.619.816,4.7,4.7,0,0,1,0-9.4,4.6,4.6,0,0,1,2.619.816v-.57Zm15.9-.24A3.2,3.2,0,0,0,51.4,45.088v-1H48.77v8.9h2.663V48.31a1.869,1.869,0,0,1,1.983-2.017c1.161,0,1.828.7,1.828,2v4.7h2.639V47.326A3.507,3.507,0,0,0,54.123,43.845ZM27.1,52.989h2.765V40.117H27.1Zm-12.147,0h2.928V40.114H14.949ZM25.191,40.114a10.29,10.29,0,0,1-3,7.309l4.048,5.569H22.626l-4.4-6.053,1.135-.858a7.417,7.417,0,0,0,2.962-5.968Z" transform="translate(-8.083 -21.69)" fill="#0a0b09"/>
  </g>
</svg>
