<svg xmlns="http://www.w3.org/2000/svg" xmlns:xlink="http://www.w3.org/1999/xlink" width="500" zoomAndPan="magnify" viewBox="0 0 375 374.999991" height="500" preserveAspectRatio="xMidYMid meet" version="1.0"><defs><g/><clipPath id="1310d2cac7"><path d="M 169 153 L 223 153 L 223 218 L 169 218 Z M 169 153 " clip-rule="nonzero"/></clipPath><clipPath id="ed990f4f89"><path d="M 146.710938 130.761719 L 229.148438 133.914062 L 225.796875 221.601562 L 143.359375 218.449219 Z M 146.710938 130.761719 " clip-rule="nonzero"/></clipPath><clipPath id="f8a82be254"><path d="M 146.710938 130.761719 L 229.148438 133.914062 L 225.796875 221.601562 L 143.359375 218.449219 Z M 146.710938 130.761719 " clip-rule="nonzero"/></clipPath><clipPath id="ba211ef66e"><path d="M 150 131 L 196 131 L 196 194 L 150 194 Z M 150 131 " clip-rule="nonzero"/></clipPath><clipPath id="d02a457dd9"><path d="M 146.710938 130.761719 L 229.148438 133.914062 L 225.796875 221.601562 L 143.359375 218.449219 Z M 146.710938 130.761719 " clip-rule="nonzero"/></clipPath><clipPath id="30a396c20f"><path d="M 146.710938 130.761719 L 229.148438 133.914062 L 225.796875 221.601562 L 143.359375 218.449219 Z M 146.710938 130.761719 " clip-rule="nonzero"/></clipPath></defs><path stroke-linecap="butt" transform="matrix(1.237278, 0, 0, 1.237278, 215.474345, 149.167301)" fill="none" stroke-linejoin="miter" d="M 20.920941 52.860381 C 18.821449 52.860381 16.870342 52.563611 15.073935 51.973228 C 13.277528 51.382844 11.711591 50.502005 10.376124 49.330709 C 9.046972 48.159414 8.001962 46.685034 7.237936 44.904412 C 6.473911 43.12379 6.091898 41.046398 6.091898 38.669078 C 6.091898 36.32333 6.473911 34.309081 7.237936 32.62633 C 8.001962 30.934108 9.002772 29.54497 10.243525 28.458917 C 11.493749 27.376021 12.917615 26.577267 14.515123 26.062655 C 16.112631 25.544886 17.748025 25.282844 19.424461 25.282844 C 21.306111 25.282844 23.020433 25.570143 24.567427 26.141583 C 26.111264 26.70671 27.443574 27.486521 28.564355 28.487331 C 29.681979 29.475513 30.556505 30.665752 31.181616 32.054889 C 31.806728 33.44087 32.119284 34.953135 32.119284 36.585372 C 32.119284 37.800867 31.778314 38.729064 31.102688 39.369961 C 30.423905 40.004545 29.48308 40.408657 28.277056 40.5823 L 15.102349 42.561821 C 15.490676 43.733116 16.28943 44.613956 17.495454 45.204339 C 18.71095 45.785251 20.100087 46.075707 21.662867 46.075707 C 23.121461 46.075707 24.497971 45.889437 25.789237 45.516895 C 27.093132 45.144354 28.150771 44.70867 28.968468 44.213 C 29.539908 44.569756 30.022949 45.068583 30.411277 45.712637 C 30.802761 46.344063 30.998503 47.016532 30.998503 47.730044 C 30.998503 49.333866 30.25342 50.527262 28.760097 51.31023 C 27.620373 51.910085 26.341735 52.317355 24.917869 52.535197 C 23.494003 52.749882 22.161694 52.860381 20.920941 52.860381 Z M 19.424461 31.897033 C 18.572036 31.897033 17.836424 32.039104 17.211313 32.326403 C 16.586201 32.60423 16.077903 32.970457 15.686418 33.421927 C 15.294934 33.863925 15.001321 34.362752 14.802422 34.918407 C 14.609837 35.464591 14.49618 36.020246 14.461452 36.585372 L 23.576088 35.101521 C 23.471903 34.388009 23.083576 33.677655 22.404793 32.964143 C 21.735481 32.253789 20.744142 31.897033 19.424461 31.897033 Z M 45.549719 51.947971 C 45.192963 52.052156 44.634151 52.156341 43.870125 52.260527 C 43.1061 52.374183 42.316817 52.431012 41.49912 52.431012 C 40.719309 52.431012 40.015269 52.374183 39.390157 52.260527 C 38.774516 52.156341 38.250432 51.944813 37.814748 51.622786 C 37.391693 51.300759 37.060194 50.868232 36.826566 50.318891 C 36.599253 49.766393 36.488753 49.04341 36.488753 48.159414 L 36.488753 32.155917 C 36.488753 31.341378 36.640296 30.643652 36.94338 30.06274 C 37.246465 29.472356 37.682149 28.945115 38.244118 28.487331 C 38.818716 28.016919 39.522756 27.597021 40.356239 27.224479 C 41.186564 26.848781 42.083189 26.523596 43.036643 26.245769 C 43.999568 25.95847 44.997221 25.737471 46.03276 25.582771 C 47.065142 25.4186 48.097523 25.336515 49.129905 25.336515 C 50.831599 25.336515 52.182851 25.664856 53.180504 26.324697 C 54.178157 26.984537 54.676984 28.061119 54.676984 29.554442 C 54.676984 30.046954 54.60437 30.539466 54.455985 31.025665 C 54.317071 31.502391 54.137115 31.934918 53.92243 32.326403 C 53.17419 32.326403 52.410164 32.361131 51.630353 32.430588 C 50.847384 32.500045 50.086516 32.607387 49.338276 32.755772 C 48.593193 32.894686 47.889153 33.046228 47.229312 33.213556 C 46.578944 33.368256 46.016974 33.551369 45.549719 33.75974 Z M 57.284774 39.044777 C 57.284774 36.692714 57.64153 34.656365 58.355041 32.938886 C 59.065396 31.211935 60.050421 29.778598 61.310116 28.642031 C 62.576125 27.505464 64.050506 26.66251 65.736413 26.116326 C 67.428635 25.560671 69.2503 25.282844 71.204564 25.282844 C 71.914918 25.282844 72.609487 25.349143 73.28827 25.478586 C 73.963896 25.598557 74.516394 25.746942 74.942607 25.920584 L 74.942607 17.288988 C 75.296206 17.175332 75.864489 17.058518 76.647457 16.938547 C 77.427269 16.815419 78.226023 16.755433 79.04372 16.755433 C 79.823531 16.755433 80.527571 16.805947 81.152683 16.910133 C 81.777795 17.014318 82.301879 17.229003 82.728091 17.547873 C 83.151147 17.8699 83.470017 18.308742 83.678388 18.864397 C 83.893073 19.41058 84.003572 20.127249 84.003572 21.011246 L 84.003572 46.296706 C 84.003572 47.963672 83.220604 49.295981 81.660981 50.293634 C 80.625442 50.972417 79.289976 51.565958 77.648268 52.077413 C 76.016031 52.59834 74.134381 52.860381 71.997004 52.860381 C 69.689141 52.860381 67.618063 52.538354 65.786927 51.894299 C 63.955792 51.253402 62.411955 50.328363 61.152259 49.122339 C 59.895721 47.916315 58.935954 46.467192 58.276113 44.774969 C 57.616273 43.082747 57.284774 41.172683 57.284774 39.044777 Z M 72.429531 32.380074 C 70.509995 32.380074 69.035615 32.929415 68.000076 34.031253 C 66.967694 35.136249 66.453082 36.806371 66.453082 39.044777 C 66.453082 41.248454 66.932966 42.912262 67.895891 44.033044 C 68.861973 45.150668 70.25111 45.712637 72.063304 45.712637 C 72.697887 45.712637 73.269328 45.614766 73.780783 45.425338 C 74.301709 45.226439 74.705822 44.999126 74.993121 44.746555 L 74.993121 33.017814 C 74.282767 32.591602 73.427184 32.380074 72.429531 32.380074 Z M 103.366256 52.860381 C 101.266764 52.860381 99.315657 52.563611 97.519249 51.973228 C 95.722842 51.382844 94.156905 50.502005 92.818282 49.330709 C 91.492287 48.159414 90.447276 46.685034 89.683251 44.904412 C 88.919225 43.12379 88.537212 41.046398 88.537212 38.669078 C 88.537212 36.32333 88.919225 34.309081 89.683251 32.62633 C 90.447276 30.934108 91.448087 29.54497 92.688839 28.458917 C 93.939063 27.376021 95.362929 26.577267 96.960437 26.062655 C 98.557945 25.544886 100.193339 25.282844 101.869776 25.282844 C 103.751426 25.282844 105.465748 25.570143 107.012742 26.141583 C 108.556579 26.70671 109.888888 27.486521 111.009669 28.487331 C 112.127294 29.475513 113.001819 30.665752 113.626931 32.054889 C 114.252043 33.44087 114.564599 34.953135 114.564599 36.585372 C 114.564599 37.800867 114.223629 38.729064 113.548003 39.369961 C 112.869219 40.004545 111.928394 40.408657 110.72237 40.5823 L 97.544506 42.561821 C 97.935991 43.733116 98.734745 44.613956 99.940769 45.204339 C 101.156264 45.785251 102.545402 46.075707 104.108181 46.075707 C 105.566776 46.075707 106.943285 45.889437 108.234551 45.516895 C 109.538446 45.144354 110.596085 44.70867 111.413782 44.213 C 111.985223 44.569756 112.468264 45.068583 112.856591 45.712637 C 113.248075 46.344063 113.443817 47.016532 113.443817 47.730044 C 113.443817 49.333866 112.695577 50.527262 111.205412 51.31023 C 110.065687 51.910085 108.787049 52.317355 107.363183 52.535197 C 105.939317 52.749882 104.607008 52.860381 103.366256 52.860381 Z M 101.869776 31.897033 C 101.01735 31.897033 100.281739 32.039104 99.656627 32.326403 C 99.031515 32.60423 98.523217 32.970457 98.131733 33.421927 C 97.740249 33.863925 97.446635 34.362752 97.247736 34.918407 C 97.055151 35.464591 96.941494 36.020246 96.906766 36.585372 L 106.021403 35.101521 C 105.917217 34.388009 105.52889 33.677655 104.850107 32.964143 C 104.180795 32.253789 103.189456 31.897033 101.869776 31.897033 Z M 101.869776 31.897033 " stroke="#24402a" stroke-width="3.999998" stroke-opacity="1" stroke-miterlimit="4"/><g fill="#00bf47" fill-opacity="1"><g transform="translate(220.964768, 213.505781)"><g><path d="M 20.390625 1.0625 C 17.796875 1.0625 15.382812 0.695312 13.15625 -0.03125 C 10.9375 -0.757812 9.003906 -1.847656 7.359375 -3.296875 C 5.710938 -4.753906 4.414062 -6.582031 3.46875 -8.78125 C 2.519531 -10.976562 2.046875 -13.550781 2.046875 -16.5 C 2.046875 -19.394531 2.519531 -21.890625 3.46875 -23.984375 C 4.414062 -26.078125 5.65625 -27.789062 7.1875 -29.125 C 8.726562 -30.46875 10.488281 -31.457031 12.46875 -32.09375 C 14.445312 -32.738281 16.472656 -33.0625 18.546875 -33.0625 C 20.867188 -33.0625 22.988281 -32.707031 24.90625 -32 C 26.820312 -31.300781 28.472656 -30.332031 29.859375 -29.09375 C 31.242188 -27.863281 32.320312 -26.390625 33.09375 -24.671875 C 33.863281 -22.960938 34.25 -21.09375 34.25 -19.0625 C 34.25 -17.570312 33.828125 -16.429688 32.984375 -15.640625 C 32.148438 -14.847656 30.988281 -14.34375 29.5 -14.125 L 13.203125 -11.671875 C 13.679688 -10.222656 14.664062 -9.132812 16.15625 -8.40625 C 17.65625 -7.6875 19.375 -7.328125 21.3125 -7.328125 C 23.113281 -7.328125 24.816406 -7.554688 26.421875 -8.015625 C 28.023438 -8.472656 29.335938 -9.015625 30.359375 -9.640625 C 31.054688 -9.191406 31.644531 -8.570312 32.125 -7.78125 C 32.613281 -6.988281 32.859375 -6.15625 32.859375 -5.28125 C 32.859375 -3.300781 31.9375 -1.828125 30.09375 -0.859375 C 28.6875 -0.109375 27.101562 0.394531 25.34375 0.65625 C 23.582031 0.925781 21.929688 1.0625 20.390625 1.0625 Z M 18.546875 -24.875 C 17.484375 -24.875 16.566406 -24.695312 15.796875 -24.34375 C 15.035156 -24 14.410156 -23.550781 13.921875 -23 C 13.441406 -22.445312 13.078125 -21.828125 12.828125 -21.140625 C 12.585938 -20.460938 12.445312 -19.769531 12.40625 -19.0625 L 23.6875 -20.921875 C 23.550781 -21.796875 23.066406 -22.671875 22.234375 -23.546875 C 21.398438 -24.429688 20.171875 -24.875 18.546875 -24.875 Z M 18.546875 -24.875 "/></g></g></g><g fill="#00bf47" fill-opacity="1"><g transform="translate(257.188693, 213.505781)"><g><path d="M 14.65625 -0.0625 C 14.207031 0.0625 13.507812 0.191406 12.5625 0.328125 C 11.625 0.460938 10.648438 0.53125 9.640625 0.53125 C 8.671875 0.53125 7.800781 0.460938 7.03125 0.328125 C 6.257812 0.191406 5.609375 -0.0703125 5.078125 -0.46875 C 4.546875 -0.863281 4.140625 -1.398438 3.859375 -2.078125 C 3.578125 -2.753906 3.4375 -3.644531 3.4375 -4.75 L 3.4375 -24.546875 C 3.4375 -25.554688 3.617188 -26.421875 3.984375 -27.140625 C 4.359375 -27.867188 4.898438 -28.519531 5.609375 -29.09375 C 6.316406 -29.664062 7.1875 -30.179688 8.21875 -30.640625 C 9.25 -31.109375 10.359375 -31.515625 11.546875 -31.859375 C 12.734375 -32.210938 13.960938 -32.488281 15.234375 -32.6875 C 16.515625 -32.894531 17.789062 -33 19.0625 -33 C 21.175781 -33 22.847656 -32.585938 24.078125 -31.765625 C 25.316406 -30.953125 25.9375 -29.625 25.9375 -27.78125 C 25.9375 -27.164062 25.847656 -26.5625 25.671875 -25.96875 C 25.492188 -25.375 25.273438 -24.832031 25.015625 -24.34375 C 24.085938 -24.34375 23.140625 -24.296875 22.171875 -24.203125 C 21.203125 -24.117188 20.253906 -23.988281 19.328125 -23.8125 C 18.410156 -23.644531 17.539062 -23.460938 16.71875 -23.265625 C 15.90625 -23.066406 15.21875 -22.832031 14.65625 -22.5625 Z M 14.65625 -0.0625 "/></g></g></g><g fill="#00bf47" fill-opacity="1"><g transform="translate(284.307135, 213.505781)"><g><path d="M 2.046875 -16.03125 C 2.046875 -18.9375 2.484375 -21.457031 3.359375 -23.59375 C 4.242188 -25.726562 5.46875 -27.5 7.03125 -28.90625 C 8.59375 -30.3125 10.414062 -31.351562 12.5 -32.03125 C 14.59375 -32.71875 16.847656 -33.0625 19.265625 -33.0625 C 20.148438 -33.0625 21.007812 -32.984375 21.84375 -32.828125 C 22.675781 -32.671875 23.359375 -32.484375 23.890625 -32.265625 L 23.890625 -42.953125 C 24.328125 -43.085938 25.03125 -43.226562 26 -43.375 C 26.96875 -43.53125 27.957031 -43.609375 28.96875 -43.609375 C 29.9375 -43.609375 30.804688 -43.539062 31.578125 -43.40625 C 32.347656 -43.28125 32.992188 -43.019531 33.515625 -42.625 C 34.046875 -42.226562 34.441406 -41.6875 34.703125 -41 C 34.972656 -40.320312 35.109375 -39.4375 35.109375 -38.34375 L 35.109375 -7.0625 C 35.109375 -4.988281 34.140625 -3.335938 32.203125 -2.109375 C 30.921875 -1.273438 29.269531 -0.539062 27.25 0.09375 C 25.226562 0.738281 22.894531 1.0625 20.25 1.0625 C 17.394531 1.0625 14.832031 0.664062 12.5625 -0.125 C 10.300781 -0.914062 8.390625 -2.0625 6.828125 -3.5625 C 5.265625 -5.0625 4.078125 -6.851562 3.265625 -8.9375 C 2.453125 -11.03125 2.046875 -13.394531 2.046875 -16.03125 Z M 20.78125 -24.28125 C 18.40625 -24.28125 16.578125 -23.597656 15.296875 -22.234375 C 14.023438 -20.867188 13.390625 -18.800781 13.390625 -16.03125 C 13.390625 -13.300781 13.984375 -11.242188 15.171875 -9.859375 C 16.359375 -8.472656 18.078125 -7.78125 20.328125 -7.78125 C 21.117188 -7.78125 21.832031 -7.898438 22.46875 -8.140625 C 23.101562 -8.390625 23.597656 -8.664062 23.953125 -8.96875 L 23.953125 -23.484375 C 23.066406 -24.015625 22.007812 -24.28125 20.78125 -24.28125 Z M 20.78125 -24.28125 "/></g></g></g><g fill="#00bf47" fill-opacity="1"><g transform="translate(322.972371, 213.505781)"><g><path d="M 20.390625 1.0625 C 17.796875 1.0625 15.382812 0.695312 13.15625 -0.03125 C 10.9375 -0.757812 9.003906 -1.847656 7.359375 -3.296875 C 5.710938 -4.753906 4.414062 -6.582031 3.46875 -8.78125 C 2.519531 -10.976562 2.046875 -13.550781 2.046875 -16.5 C 2.046875 -19.394531 2.519531 -21.890625 3.46875 -23.984375 C 4.414062 -26.078125 5.65625 -27.789062 7.1875 -29.125 C 8.726562 -30.46875 10.488281 -31.457031 12.46875 -32.09375 C 14.445312 -32.738281 16.472656 -33.0625 18.546875 -33.0625 C 20.867188 -33.0625 22.988281 -32.707031 24.90625 -32 C 26.820312 -31.300781 28.472656 -30.332031 29.859375 -29.09375 C 31.242188 -27.863281 32.320312 -26.390625 33.09375 -24.671875 C 33.863281 -22.960938 34.25 -21.09375 34.25 -19.0625 C 34.25 -17.570312 33.828125 -16.429688 32.984375 -15.640625 C 32.148438 -14.847656 30.988281 -14.34375 29.5 -14.125 L 13.203125 -11.671875 C 13.679688 -10.222656 14.664062 -9.132812 16.15625 -8.40625 C 17.65625 -7.6875 19.375 -7.328125 21.3125 -7.328125 C 23.113281 -7.328125 24.816406 -7.554688 26.421875 -8.015625 C 28.023438 -8.472656 29.335938 -9.015625 30.359375 -9.640625 C 31.054688 -9.191406 31.644531 -8.570312 32.125 -7.78125 C 32.613281 -6.988281 32.859375 -6.15625 32.859375 -5.28125 C 32.859375 -3.300781 31.9375 -1.828125 30.09375 -0.859375 C 28.6875 -0.109375 27.101562 0.394531 25.34375 0.65625 C 23.582031 0.925781 21.929688 1.0625 20.390625 1.0625 Z M 18.546875 -24.875 C 17.484375 -24.875 16.566406 -24.695312 15.796875 -24.34375 C 15.035156 -24 14.410156 -23.550781 13.921875 -23 C 13.441406 -22.445312 13.078125 -21.828125 12.828125 -21.140625 C 12.585938 -20.460938 12.445312 -19.769531 12.40625 -19.0625 L 23.6875 -20.921875 C 23.550781 -21.796875 23.066406 -22.671875 22.234375 -23.546875 C 21.398438 -24.429688 20.171875 -24.875 18.546875 -24.875 Z M 18.546875 -24.875 "/></g></g></g><g clip-path="url(#1310d2cac7)"><g clip-path="url(#ed990f4f89)"><g clip-path="url(#f8a82be254)"><path fill="#00bf47" d="M 216.480469 204.6875 C 207.097656 218.75 196.203125 220.25 186.101562 215.535156 C 186.238281 213.460938 186.488281 211.226562 186.882812 208.878906 C 189.480469 193.488281 210.175781 168.574219 210.421875 168.277344 C 210.175781 168.46875 189.574219 184.335938 182.035156 204.855469 C 181.078125 207.460938 180.414062 209.796875 179.988281 211.894531 C 169.570312 204.304688 164.9375 192.894531 175.378906 177.253906 C 186.257812 160.953125 220.738281 153.804688 220.738281 153.804688 C 220.738281 153.804688 227.363281 188.386719 216.480469 204.6875 Z M 216.480469 204.6875 " fill-opacity="1" fill-rule="nonzero"/></g></g></g><g clip-path="url(#ba211ef66e)"><g clip-path="url(#d02a457dd9)"><g clip-path="url(#30a396c20f)"><path fill="#24402a" d="M 195.476562 158.5625 C 187.816406 161.835938 179.921875 166.277344 174.871094 171.992188 C 168.097656 160.449219 162.4375 148.144531 162.308594 147.785156 C 162.355469 148.160156 164.984375 161.707031 172.078125 175.753906 C 167.878906 182.371094 166.402344 188.210938 166.921875 193.3125 C 161.941406 191.371094 157.367188 187.011719 153.636719 179.386719 C 145.492188 162.734375 156.0625 131.152344 156.0625 131.152344 C 156.0625 131.152344 187.113281 142.074219 195.476562 158.5625 Z M 195.476562 158.5625 " fill-opacity="1" fill-rule="nonzero"/></g></g></g><path stroke-linecap="butt" transform="matrix(0.75, 0, 0, 0.75, -90.014126, 149.167301)" fill="none" stroke-linejoin="miter" d="M 141.242802 86.256105 C 138.721968 86.256105 136.721968 85.526938 135.24801 84.068605 C 133.789676 82.589438 133.055301 80.594646 133.055301 78.073813 L 133.055301 32.599851 C 133.701135 32.485268 134.727176 32.329018 136.128218 32.131101 C 137.544885 31.912351 138.899052 31.808185 140.190718 31.808185 C 141.534468 31.808185 142.721968 31.912351 143.753219 32.131101 C 144.784469 32.329018 145.649052 32.693601 146.352177 33.224851 C 147.055302 33.740476 147.576135 34.469643 147.919885 35.41756 C 148.279261 36.344643 148.456344 37.579018 148.456344 39.110268 L 148.456344 73.865479 L 168.607387 73.865479 C 169.018845 74.506104 169.399054 75.375896 169.742804 76.464438 C 170.102179 77.537354 170.279262 78.662354 170.279262 79.834229 C 170.279262 82.183188 169.779262 83.844646 168.779262 84.818605 C 167.789678 85.776938 166.47197 86.256105 164.826137 86.256105 Z M 176.701137 31.35506 C 176.701137 29.136309 177.445929 27.266518 178.935513 25.750893 C 180.440721 24.219642 182.425096 23.454017 184.888638 23.454017 C 187.35218 23.454017 189.326138 24.219642 190.815722 25.750893 C 192.305305 27.266518 193.050097 29.136309 193.050097 31.35506 C 193.050097 33.589435 192.305305 35.474852 190.815722 37.006102 C 189.326138 38.521727 187.35218 39.282143 184.888638 39.282143 C 182.425096 39.282143 180.440721 38.521727 178.935513 37.006102 C 177.445929 35.474852 176.701137 33.589435 176.701137 31.35506 Z M 192.362597 85.912355 C 191.716763 86.026938 190.763638 86.188397 189.503222 86.386313 C 188.242805 86.599855 186.961555 86.70923 185.659471 86.70923 C 184.373013 86.70923 183.211554 86.61548 182.180304 86.42798 C 181.164679 86.256105 180.305304 85.907147 179.602179 85.375896 C 178.899054 84.849855 178.357387 84.131105 177.971971 83.230063 C 177.581346 82.313396 177.388637 81.125896 177.388637 79.662354 L 177.388637 43.85506 C 178.034471 43.740477 178.987596 43.584227 180.248013 43.38631 C 181.524054 43.16756 182.805304 43.063394 184.091763 43.063394 C 185.38343 43.063394 186.534471 43.157144 187.550096 43.339435 C 188.581347 43.51131 189.44593 43.865477 190.149055 44.396727 C 190.85218 44.907144 191.393847 45.625894 191.779263 46.542561 C 192.169888 47.443602 192.362597 48.631102 192.362597 50.110269 Z M 228.961557 58.89152 C 228.961557 57.073811 228.445932 55.740478 227.414682 54.896728 C 226.383432 54.052978 224.987599 53.631103 223.227182 53.631103 C 222.050099 53.631103 220.893849 53.782144 219.748015 54.079019 C 218.617807 54.365478 217.633432 54.802978 216.805307 55.391519 L 216.805307 85.912355 C 216.216765 86.08423 215.29489 86.256105 214.034473 86.42798 C 212.774056 86.61548 211.471973 86.70923 210.123015 86.70923 C 208.836556 86.70923 207.675098 86.61548 206.643848 86.42798 C 205.628223 86.256105 204.758431 85.907147 204.044889 85.375896 C 203.341764 84.849855 202.800097 84.131105 202.414681 83.230063 C 202.039681 82.313396 201.852181 81.125896 201.852181 79.662354 L 201.852181 53.266519 C 201.852181 51.688394 202.190722 50.401936 202.862597 49.396727 C 203.534472 48.396727 204.461556 47.485269 205.633431 46.672769 C 207.623014 45.266519 210.133431 44.131102 213.154265 43.256102 C 216.175098 42.365477 219.529265 41.922769 223.227182 41.922769 C 229.857391 41.922769 234.961558 43.375894 238.539683 46.282144 C 242.123017 49.177977 243.909475 53.209228 243.909475 58.375895 L 243.909475 85.912355 C 243.326142 86.08423 242.399058 86.256105 241.138642 86.42798 C 239.878225 86.61548 238.576141 86.70923 237.232391 86.70923 C 235.930308 86.70923 234.758433 86.61548 233.727183 86.42798 C 232.711558 86.256105 231.852183 85.907147 231.154266 85.375896 C 230.451141 84.849855 229.904266 84.131105 229.518849 83.230063 C 229.149057 82.313396 228.961557 81.125896 228.961557 79.662354 Z M 275.758436 87.417563 C 272.294894 87.417563 269.076143 86.933188 266.112602 85.95923 C 263.14906 84.985271 260.565726 83.532146 258.357393 81.594646 C 256.169893 79.662354 254.440726 77.230063 253.180309 74.292562 C 251.925101 71.360271 251.294892 67.927979 251.294892 64.006103 C 251.294892 60.136311 251.925101 56.818603 253.180309 54.037353 C 254.440726 51.245686 256.096976 48.954019 258.143851 47.167561 C 260.206351 45.375894 262.55531 44.058185 265.190727 43.214435 C 267.826143 42.35506 270.52406 41.922769 273.289685 41.922769 C 276.393852 41.922769 279.221977 42.396727 281.774061 43.339435 C 284.320936 44.271727 286.518853 45.563394 288.367811 47.209227 C 290.211562 48.839436 291.65427 50.802978 292.68552 53.094644 C 293.71677 55.386311 294.232395 57.875895 294.232395 60.568603 C 294.232395 62.573812 293.669895 64.105062 292.555312 65.162353 C 291.43552 66.209229 289.883436 66.875895 287.893853 67.162354 L 266.154268 70.427979 C 266.800102 72.360271 268.11781 73.813396 270.107394 74.787354 C 272.112602 75.745688 274.404269 76.224854 276.982394 76.224854 C 279.388644 76.224854 281.659478 75.917563 283.789686 75.302979 C 285.940728 74.688396 287.68552 73.969646 289.034478 73.157146 C 289.977186 73.740479 290.774062 74.563396 291.414687 75.625896 C 292.06052 76.672771 292.383437 77.782146 292.383437 78.954021 C 292.383437 81.605063 291.149062 83.573813 288.690728 84.860271 C 286.81052 85.849855 284.701144 86.52173 282.352186 86.881105 C 280.003228 87.24048 277.805311 87.417563 275.758436 87.417563 Z M 273.289685 52.834228 C 271.883435 52.834228 270.664685 53.073811 269.638643 53.542561 C 268.607393 54.000894 267.768852 54.605061 267.123018 55.349853 C 266.477185 56.07902 265.99281 56.901936 265.664685 57.818603 C 265.346977 58.719645 265.159477 59.636311 265.102185 60.568603 L 280.138644 58.120686 C 279.966769 56.943603 279.320936 55.771728 278.206352 54.594644 C 277.102186 53.422769 275.466769 52.834228 273.289685 52.834228 Z M 319.737605 76.506104 C 320.737605 76.506104 321.841772 76.407146 323.044897 76.204021 C 324.248022 75.990479 325.133439 75.704021 325.706356 75.344646 L 325.706356 68.323812 L 319.393855 68.839437 C 317.742813 68.95402 316.393855 69.302979 315.331355 69.89152 C 314.274063 70.480062 313.742813 71.360271 313.742813 72.532146 C 313.742813 73.704021 314.195938 74.667562 315.09698 75.412354 C 316.013647 76.141521 317.560522 76.506104 319.737605 76.506104 Z M 319.024063 41.922769 C 322.19073 41.922769 325.076147 42.245685 327.680314 42.891519 C 330.305314 43.537352 332.539689 44.516519 334.383439 45.834227 C 336.232398 47.151936 337.649065 48.823811 338.638648 50.860269 C 339.638648 52.881103 340.138648 55.261311 340.138648 58.011311 L 340.138648 77.730063 C 340.138648 79.245688 339.711565 80.495688 338.85219 81.469646 C 338.00844 82.443605 337.003231 83.276938 335.846981 83.980063 C 332.024064 86.27173 326.654272 87.417563 319.737605 87.417563 C 316.62823 87.417563 313.826146 87.125897 311.336563 86.537355 C 308.846979 85.948813 306.706354 85.068605 304.914687 83.89673 C 303.123021 82.719646 301.742812 81.224855 300.768854 79.407146 C 299.81052 77.589438 299.331354 75.474854 299.331354 73.068604 C 299.331354 69.01652 300.534479 65.907145 302.940729 63.745687 C 305.341771 61.568603 309.065729 60.219645 314.107396 59.688395 L 325.623022 58.464436 L 325.623022 57.839436 C 325.623022 56.136311 324.867814 54.917561 323.367814 54.188394 C 321.87823 53.459228 319.727188 53.094644 316.919897 53.094644 C 314.685521 53.094644 312.513646 53.329019 310.393855 53.802978 C 308.284479 54.276936 306.388646 54.860269 304.701146 55.563395 C 303.925104 55.032144 303.274062 54.224853 302.742812 53.136311 C 302.227187 52.047769 301.971979 50.917561 301.971979 49.740477 C 301.971979 48.224852 302.336562 47.016519 303.065729 46.110269 C 303.800104 45.193602 304.919896 44.41756 306.440729 43.771727 C 308.143854 43.125894 310.154271 42.662352 312.477188 42.375894 C 314.794896 42.07381 316.977188 41.922769 319.024063 41.922769 Z M 319.024063 41.922769 " stroke="#7d5e05" stroke-width="6.598815" stroke-opacity="1" stroke-miterlimit="4"/><g fill="#e8ca60" fill-opacity="1"><g transform="translate(5.493681, 213.667296)"><g><path d="M 10.421875 0.203125 C 8.535156 0.203125 7.039062 -0.34375 5.9375 -1.4375 C 4.832031 -2.539062 4.28125 -4.039062 4.28125 -5.9375 L 4.28125 -40.046875 C 4.769531 -40.140625 5.539062 -40.257812 6.59375 -40.40625 C 7.65625 -40.5625 8.671875 -40.640625 9.640625 -40.640625 C 10.648438 -40.640625 11.535156 -40.5625 12.296875 -40.40625 C 13.066406 -40.257812 13.71875 -39.988281 14.25 -39.59375 C 14.78125 -39.195312 15.175781 -38.644531 15.4375 -37.9375 C 15.707031 -37.238281 15.84375 -36.316406 15.84375 -35.171875 L 15.84375 -9.109375 L 30.953125 -9.109375 C 31.253906 -8.617188 31.535156 -7.96875 31.796875 -7.15625 C 32.066406 -6.34375 32.203125 -5.5 32.203125 -4.625 C 32.203125 -2.863281 31.828125 -1.617188 31.078125 -0.890625 C 30.328125 -0.160156 29.335938 0.203125 28.109375 0.203125 Z M 10.421875 0.203125 "/></g></g></g><g fill="#e8ca60" fill-opacity="1"><g transform="translate(39.339683, 213.667296)"><g><path d="M 3.171875 -40.96875 C 3.171875 -42.644531 3.726562 -44.054688 4.84375 -45.203125 C 5.96875 -46.347656 7.453125 -46.921875 9.296875 -46.921875 C 11.148438 -46.921875 12.632812 -46.347656 13.75 -45.203125 C 14.875 -44.054688 15.4375 -42.644531 15.4375 -40.96875 C 15.4375 -39.300781 14.875 -37.894531 13.75 -36.75 C 12.632812 -35.601562 11.148438 -35.03125 9.296875 -35.03125 C 7.453125 -35.03125 5.96875 -35.601562 4.84375 -36.75 C 3.726562 -37.894531 3.171875 -39.300781 3.171875 -40.96875 Z M 14.90625 -0.0625 C 14.425781 0.0195312 13.710938 0.140625 12.765625 0.296875 C 11.816406 0.453125 10.859375 0.53125 9.890625 0.53125 C 8.929688 0.53125 8.066406 0.460938 7.296875 0.328125 C 6.523438 0.191406 5.875 -0.0703125 5.34375 -0.46875 C 4.8125 -0.863281 4.398438 -1.398438 4.109375 -2.078125 C 3.828125 -2.753906 3.6875 -3.644531 3.6875 -4.75 L 3.6875 -31.609375 C 4.175781 -31.691406 4.894531 -31.8125 5.84375 -31.96875 C 6.789062 -32.125 7.742188 -32.203125 8.703125 -32.203125 C 9.671875 -32.203125 10.539062 -32.132812 11.3125 -32 C 12.082031 -31.863281 12.734375 -31.597656 13.265625 -31.203125 C 13.796875 -30.804688 14.203125 -30.269531 14.484375 -29.59375 C 14.765625 -28.914062 14.90625 -28.023438 14.90625 -26.921875 Z M 14.90625 -0.0625 "/></g></g></g><g fill="#e8ca60" fill-opacity="1"><g transform="translate(57.945085, 213.667296)"><g><path d="M 23.75 -20.328125 C 23.75 -21.691406 23.363281 -22.691406 22.59375 -23.328125 C 21.820312 -23.960938 20.78125 -24.28125 19.46875 -24.28125 C 18.582031 -24.28125 17.710938 -24.171875 16.859375 -23.953125 C 16.003906 -23.734375 15.269531 -23.40625 14.65625 -22.96875 L 14.65625 -0.0625 C 14.207031 0.0625 13.507812 0.191406 12.5625 0.328125 C 11.625 0.460938 10.648438 0.53125 9.640625 0.53125 C 8.671875 0.53125 7.800781 0.460938 7.03125 0.328125 C 6.257812 0.191406 5.609375 -0.0703125 5.078125 -0.46875 C 4.546875 -0.863281 4.140625 -1.398438 3.859375 -2.078125 C 3.578125 -2.753906 3.4375 -3.644531 3.4375 -4.75 L 3.4375 -24.546875 C 3.4375 -25.734375 3.6875 -26.703125 4.1875 -27.453125 C 4.695312 -28.203125 5.390625 -28.882812 6.265625 -29.5 C 7.765625 -30.550781 9.644531 -31.40625 11.90625 -32.0625 C 14.175781 -32.726562 16.695312 -33.0625 19.46875 -33.0625 C 24.4375 -33.0625 28.257812 -31.972656 30.9375 -29.796875 C 33.625 -27.617188 34.96875 -24.59375 34.96875 -20.71875 L 34.96875 -0.0625 C 34.53125 0.0625 33.835938 0.191406 32.890625 0.328125 C 31.941406 0.460938 30.960938 0.53125 29.953125 0.53125 C 28.984375 0.53125 28.113281 0.460938 27.34375 0.328125 C 26.582031 0.191406 25.9375 -0.0703125 25.40625 -0.46875 C 24.875 -0.863281 24.460938 -1.398438 24.171875 -2.078125 C 23.890625 -2.753906 23.75 -3.644531 23.75 -4.75 Z M 23.75 -20.328125 "/></g></g></g><g fill="#e8ca60" fill-opacity="1"><g transform="translate(96.409454, 213.667296)"><g><path d="M 20.390625 1.0625 C 17.796875 1.0625 15.382812 0.695312 13.15625 -0.03125 C 10.9375 -0.757812 9.003906 -1.847656 7.359375 -3.296875 C 5.710938 -4.753906 4.414062 -6.582031 3.46875 -8.78125 C 2.519531 -10.976562 2.046875 -13.550781 2.046875 -16.5 C 2.046875 -19.394531 2.519531 -21.890625 3.46875 -23.984375 C 4.414062 -26.078125 5.65625 -27.789062 7.1875 -29.125 C 8.726562 -30.46875 10.488281 -31.457031 12.46875 -32.09375 C 14.445312 -32.738281 16.472656 -33.0625 18.546875 -33.0625 C 20.867188 -33.0625 22.988281 -32.707031 24.90625 -32 C 26.820312 -31.300781 28.472656 -30.332031 29.859375 -29.09375 C 31.242188 -27.863281 32.320312 -26.390625 33.09375 -24.671875 C 33.863281 -22.960938 34.25 -21.09375 34.25 -19.0625 C 34.25 -17.570312 33.828125 -16.429688 32.984375 -15.640625 C 32.148438 -14.847656 30.988281 -14.34375 29.5 -14.125 L 13.203125 -11.671875 C 13.679688 -10.222656 14.664062 -9.132812 16.15625 -8.40625 C 17.65625 -7.6875 19.375 -7.328125 21.3125 -7.328125 C 23.113281 -7.328125 24.816406 -7.554688 26.421875 -8.015625 C 28.023438 -8.472656 29.335938 -9.015625 30.359375 -9.640625 C 31.054688 -9.191406 31.644531 -8.570312 32.125 -7.78125 C 32.613281 -6.988281 32.859375 -6.15625 32.859375 -5.28125 C 32.859375 -3.300781 31.9375 -1.828125 30.09375 -0.859375 C 28.6875 -0.109375 27.101562 0.394531 25.34375 0.65625 C 23.582031 0.925781 21.929688 1.0625 20.390625 1.0625 Z M 18.546875 -24.875 C 17.484375 -24.875 16.566406 -24.695312 15.796875 -24.34375 C 15.035156 -24 14.410156 -23.550781 13.921875 -23 C 13.441406 -22.445312 13.078125 -21.828125 12.828125 -21.140625 C 12.585938 -20.460938 12.445312 -19.769531 12.40625 -19.0625 L 23.6875 -20.921875 C 23.550781 -21.796875 23.066406 -22.671875 22.234375 -23.546875 C 21.398438 -24.429688 20.171875 -24.875 18.546875 -24.875 Z M 18.546875 -24.875 "/></g></g></g><g fill="#e8ca60" fill-opacity="1"><g transform="translate(132.63062, 213.667296)"><g><path d="M 17.15625 -7.125 C 17.90625 -7.125 18.726562 -7.203125 19.625 -7.359375 C 20.53125 -7.515625 21.203125 -7.722656 21.640625 -7.984375 L 21.640625 -13.265625 L 16.890625 -12.859375 C 15.660156 -12.773438 14.648438 -12.515625 13.859375 -12.078125 C 13.066406 -11.640625 12.671875 -10.976562 12.671875 -10.09375 C 12.671875 -9.21875 13.007812 -8.503906 13.6875 -7.953125 C 14.375 -7.398438 15.53125 -7.125 17.15625 -7.125 Z M 16.625 -33.0625 C 19 -33.0625 21.164062 -32.816406 23.125 -32.328125 C 25.082031 -31.847656 26.753906 -31.113281 28.140625 -30.125 C 29.523438 -29.132812 30.59375 -27.878906 31.34375 -26.359375 C 32.09375 -24.835938 32.46875 -23.046875 32.46875 -20.984375 L 32.46875 -6.203125 C 32.46875 -5.054688 32.144531 -4.117188 31.5 -3.390625 C 30.863281 -2.671875 30.109375 -2.046875 29.234375 -1.515625 C 26.367188 0.203125 22.34375 1.0625 17.15625 1.0625 C 14.820312 1.0625 12.71875 0.835938 10.84375 0.390625 C 8.976562 -0.046875 7.375 -0.703125 6.03125 -1.578125 C 4.695312 -2.460938 3.664062 -3.585938 2.9375 -4.953125 C 2.207031 -6.316406 1.84375 -7.898438 1.84375 -9.703125 C 1.84375 -12.734375 2.742188 -15.0625 4.546875 -16.6875 C 6.359375 -18.320312 9.15625 -19.335938 12.9375 -19.734375 L 21.578125 -20.65625 L 21.578125 -21.109375 C 21.578125 -22.390625 21.015625 -23.300781 19.890625 -23.84375 C 18.773438 -24.394531 17.160156 -24.671875 15.046875 -24.671875 C 13.367188 -24.671875 11.738281 -24.492188 10.15625 -24.140625 C 8.570312 -23.796875 7.144531 -23.359375 5.875 -22.828125 C 5.300781 -23.222656 4.816406 -23.828125 4.421875 -24.640625 C 4.023438 -25.453125 3.828125 -26.300781 3.828125 -27.1875 C 3.828125 -28.332031 4.101562 -29.242188 4.65625 -29.921875 C 5.207031 -30.609375 6.050781 -31.191406 7.1875 -31.671875 C 8.46875 -32.148438 9.972656 -32.5 11.703125 -32.71875 C 13.441406 -32.945312 15.082031 -33.0625 16.625 -33.0625 Z M 16.625 -33.0625 "/></g></g></g></svg>