<svg xmlns="http://www.w3.org/2000/svg" xmlns:xlink="http://www.w3.org/1999/xlink" width="450" zoomAndPan="magnify" viewBox="0 0 337.5 112.499997" height="150" preserveAspectRatio="xMidYMid meet" version="1.0"><defs><g/><clipPath id="2e8b43e1de"><path d="M 180 19 L 336.503906 19 L 336.503906 110 L 180 110 Z M 180 19 " clip-rule="nonzero"/></clipPath><clipPath id="fe686e96fd"><path d="M 157 29 L 206 29 L 206 88 L 157 88 Z M 157 29 " clip-rule="nonzero"/></clipPath><clipPath id="0193e06f9d"><path d="M 136.777344 9.101562 L 211.09375 11.941406 L 208.082031 90.761719 L 133.765625 87.921875 Z M 136.777344 9.101562 " clip-rule="nonzero"/></clipPath><clipPath id="434cb46f7c"><path d="M 136.777344 9.101562 L 211.09375 11.941406 L 208.082031 90.761719 L 133.765625 87.921875 Z M 136.777344 9.101562 " clip-rule="nonzero"/></clipPath><clipPath id="aaeb3cdb5a"><path d="M 140 9 L 181 9 L 181 66 L 140 66 Z M 140 9 " clip-rule="nonzero"/></clipPath><clipPath id="f04b84a7fe"><path d="M 136.777344 9.101562 L 211.09375 11.941406 L 208.082031 90.761719 L 133.765625 87.921875 Z M 136.777344 9.101562 " clip-rule="nonzero"/></clipPath><clipPath id="7a2b6321dc"><path d="M 136.777344 9.101562 L 211.09375 11.941406 L 208.082031 90.761719 L 133.765625 87.921875 Z M 136.777344 9.101562 " clip-rule="nonzero"/></clipPath><clipPath id="5a74a20ced"><path d="M 0.496094 16 L 178 16 L 178 111 L 0.496094 111 Z M 0.496094 16 " clip-rule="nonzero"/></clipPath></defs><g clip-path="url(#2e8b43e1de)"><path stroke-linecap="butt" transform="matrix(1.115365, 0, 0, 1.115365, 198.766895, 25.690668)" fill="none" stroke-linejoin="miter" d="M 20.921101 52.859611 C 18.819771 52.859611 16.872539 52.565425 15.075902 51.97355 C 13.279265 51.385178 11.710272 50.502619 10.375928 49.329377 C 9.045086 48.159637 8.001425 46.685204 7.237942 44.902576 C 6.474459 43.12345 6.092717 41.046636 6.092717 38.668631 C 6.092717 36.322146 6.474459 34.311874 7.237942 32.627308 C 8.001425 30.932235 9.003059 29.545358 10.242843 28.459671 C 11.493135 27.373984 12.918537 26.575478 14.515547 26.064155 C 16.112558 25.542325 17.748093 25.283161 19.422152 25.283161 C 21.306344 25.283161 23.02243 25.570342 24.566908 26.141204 C 26.111385 26.70506 27.442227 27.486055 28.562936 28.484186 C 29.683645 29.475313 30.555697 30.666067 31.179092 32.052944 C 31.805988 33.443324 32.117686 34.952779 32.117686 36.584812 C 32.117686 37.800081 31.777971 38.728168 31.102043 39.369074 C 30.426115 40.002975 29.484019 40.409232 28.275755 40.580841 L 15.100417 42.559593 C 15.492666 43.732835 16.291171 44.611892 17.495933 45.203766 C 18.711202 45.785134 20.101582 46.075818 21.66357 46.075818 C 23.120492 46.075818 24.496863 45.8902 25.789181 45.515463 C 27.092005 45.144228 28.149675 44.709954 28.965691 44.212639 C 29.540055 44.569865 30.02336 45.070682 30.412106 45.711587 C 30.804355 46.345489 30.996976 47.017914 30.996976 47.728864 C 30.996976 49.336381 30.251004 50.527135 28.75906 51.311631 C 27.62084 51.91051 26.342531 52.316767 24.917129 52.533905 C 23.495229 52.751042 22.160885 52.859611 20.921101 52.859611 Z M 19.422152 31.895345 C 18.574616 31.895345 17.835648 32.038936 17.208751 32.326117 C 16.585357 32.602792 16.077536 32.970525 15.685287 33.418809 C 15.296541 33.86359 15.002355 34.360905 14.802729 34.917757 C 14.610107 35.464103 14.498036 36.020955 14.463014 36.584812 L 23.57578 35.099872 C 23.474216 34.388923 23.081968 33.677973 22.40604 32.963521 C 21.737117 32.252571 20.742488 31.895345 19.422152 31.895345 Z M 45.548685 51.949034 C 45.194961 52.050599 44.634606 52.155665 43.871123 52.260732 C 43.10764 52.372803 42.316139 52.428838 41.500123 52.428838 C 40.719129 52.428838 40.015183 52.372803 39.391789 52.260732 C 38.775399 52.155665 38.250066 51.94203 37.815791 51.623328 C 37.392023 51.301124 37.059313 50.86685 36.824664 50.320504 C 36.600522 49.763652 36.488451 49.045697 36.488451 48.159637 L 36.488451 32.158011 C 36.488451 31.341995 36.639047 30.641551 36.94374 30.060183 C 37.248432 29.471811 37.682707 28.946479 38.246564 28.484186 C 38.817425 28.018391 39.521371 27.594623 40.354898 27.223388 C 41.188426 26.848651 42.081491 26.522945 43.037596 26.24627 C 44.000705 25.959088 44.998837 25.738449 46.03199 25.580849 C 47.065144 25.416245 48.098298 25.335694 49.131452 25.335694 C 50.830027 25.335694 52.181882 25.664902 53.180014 26.323319 C 54.178145 26.985238 54.67546 28.060418 54.67546 29.552362 C 54.67546 30.049677 54.601913 30.539987 54.45482 31.023293 C 54.318234 31.503096 54.139621 31.937371 53.922484 32.326117 C 53.176511 32.326117 52.413028 32.361139 51.628532 32.431184 C 50.847538 32.501228 50.084055 32.609797 49.338083 32.75689 C 48.592111 32.896979 47.888165 33.047574 47.229748 33.212178 C 46.578336 33.369778 46.017982 33.551893 45.548685 33.758524 Z M 57.284611 39.043368 C 57.284611 36.693381 57.641837 34.658593 58.352787 32.939005 C 59.063737 31.212413 60.051362 29.780006 61.308657 28.641786 C 62.57646 27.503566 64.050893 26.663034 65.735459 26.116688 C 67.427029 25.559836 69.251684 25.283161 71.20592 25.283161 C 71.91687 25.283161 72.610309 25.349703 73.286237 25.479285 C 73.965667 25.59836 74.515515 25.748955 74.942785 25.920564 L 74.942785 17.287601 C 75.296509 17.17553 75.863868 17.059957 76.648364 16.937379 C 77.429358 16.814802 78.227864 16.755264 79.04388 16.755264 C 79.824874 16.755264 80.525318 16.807797 81.152214 16.909362 C 81.775609 17.014428 82.300941 17.228063 82.728211 17.550267 C 83.15198 17.868969 83.470681 18.310248 83.677312 18.863598 C 83.894449 19.409944 84.003018 20.127898 84.003018 21.013959 L 84.003018 46.296458 C 84.003018 47.963512 83.222024 49.297857 81.660036 50.295988 C 80.626882 50.971916 79.289035 51.567293 77.649998 52.078616 C 76.017965 52.600447 74.133773 52.859611 71.997421 52.859611 C 69.689461 52.859611 67.619651 52.537407 65.787992 51.896501 C 63.956333 51.252093 62.411855 50.327508 61.15456 49.122746 C 59.893762 47.914481 58.934155 46.468066 58.275738 44.772994 C 57.617322 43.081423 57.284611 41.172715 57.284611 39.043368 Z M 72.428194 32.378651 C 70.508979 32.378651 69.034546 32.928498 68.001393 34.031697 C 66.968239 35.134895 66.453413 36.805452 66.453413 39.043368 C 66.453413 41.249764 66.933217 42.913317 67.896326 44.030524 C 68.859435 45.151233 70.249815 45.711587 72.063963 45.711587 C 72.697864 45.711587 73.268726 45.617028 73.783551 45.424406 C 74.301879 45.224779 74.708136 45.000638 74.991816 44.748478 L 74.991816 33.016054 C 74.280866 32.592286 73.426325 32.378651 72.428194 32.378651 Z M 103.366771 52.859611 C 101.265442 52.859611 99.318209 52.565425 97.521573 51.97355 C 95.724936 51.385178 94.155943 50.502619 92.818096 49.329377 C 91.490756 48.159637 90.447096 46.685204 89.683613 44.902576 C 88.916627 43.12345 88.534886 41.046636 88.534886 38.668631 C 88.534886 36.322146 88.916627 34.311874 89.683613 32.627308 C 90.447096 30.932235 91.44873 29.545358 92.688514 28.459671 C 93.938805 27.373984 95.364207 26.575478 96.961218 26.064155 C 98.558229 25.542325 100.193764 25.283161 101.867823 25.283161 C 103.752015 25.283161 105.468101 25.570342 107.012578 26.141204 C 108.557056 26.70506 109.887898 27.486055 111.008607 28.484186 C 112.129316 29.475313 113.001368 30.666067 113.624763 32.052944 C 114.251659 33.443324 114.563356 34.952779 114.563356 36.584812 C 114.563356 37.800081 114.223641 38.728168 113.547714 39.369074 C 112.871786 40.002975 111.92969 40.409232 110.721425 40.580841 L 97.546088 42.559593 C 97.938336 43.732835 98.736842 44.611892 99.941604 45.203766 C 101.156873 45.785134 102.547253 46.075818 104.109241 46.075818 C 105.566163 46.075818 106.942534 45.8902 108.234852 45.515463 C 109.537676 45.144228 110.595346 44.709954 111.411362 44.212639 C 111.985725 44.569865 112.465529 45.070682 112.857777 45.711587 C 113.246523 46.345489 113.442647 47.017914 113.442647 47.728864 C 113.442647 49.336381 112.696675 50.527135 111.204731 51.311631 C 110.066511 51.91051 108.788202 52.316767 107.3628 52.533905 C 105.9409 52.751042 104.606556 52.859611 103.366771 52.859611 Z M 101.867823 31.895345 C 101.016784 31.895345 100.281319 32.038936 99.654422 32.326117 C 99.031028 32.602792 98.523206 32.970525 98.130958 33.418809 C 97.742212 33.86359 97.444524 34.360905 97.244897 34.917757 C 97.055778 35.464103 96.943707 36.020955 96.908685 36.584812 L 106.021451 35.099872 C 105.916385 34.388923 105.527639 33.677973 104.851711 32.963521 C 104.182788 32.252571 103.188158 31.895345 101.867823 31.895345 Z M 101.867823 31.895345 " stroke="#24402a" stroke-width="3.999998" stroke-opacity="1" stroke-miterlimit="4"/></g><g fill="#00bf47" fill-opacity="1"><g transform="translate(203.716328, 83.689658)"><g><path d="M 18.375 0.953125 C 16.039062 0.953125 13.867188 0.625 11.859375 -0.03125 C 9.859375 -0.6875 8.113281 -1.664062 6.625 -2.96875 C 5.144531 -4.28125 3.976562 -5.925781 3.125 -7.90625 C 2.269531 -9.894531 1.84375 -12.21875 1.84375 -14.875 C 1.84375 -17.488281 2.269531 -19.738281 3.125 -21.625 C 3.976562 -23.507812 5.097656 -25.054688 6.484375 -26.265625 C 7.867188 -27.472656 9.453125 -28.363281 11.234375 -28.9375 C 13.023438 -29.507812 14.851562 -29.796875 16.71875 -29.796875 C 18.820312 -29.796875 20.734375 -29.476562 22.453125 -28.84375 C 24.179688 -28.207031 25.671875 -27.332031 26.921875 -26.21875 C 28.171875 -25.113281 29.140625 -23.785156 29.828125 -22.234375 C 30.523438 -20.691406 30.875 -19.007812 30.875 -17.1875 C 30.875 -15.84375 30.492188 -14.8125 29.734375 -14.09375 C 28.984375 -13.382812 27.9375 -12.929688 26.59375 -12.734375 L 11.890625 -10.53125 C 12.328125 -9.21875 13.21875 -8.234375 14.5625 -7.578125 C 15.914062 -6.929688 17.46875 -6.609375 19.21875 -6.609375 C 20.84375 -6.609375 22.378906 -6.816406 23.828125 -7.234375 C 25.273438 -7.648438 26.453125 -8.132812 27.359375 -8.6875 C 27.992188 -8.289062 28.53125 -7.734375 28.96875 -7.015625 C 29.40625 -6.304688 29.625 -5.554688 29.625 -4.765625 C 29.625 -2.972656 28.789062 -1.640625 27.125 -0.765625 C 25.851562 -0.0976562 24.425781 0.351562 22.84375 0.59375 C 21.257812 0.832031 19.769531 0.953125 18.375 0.953125 Z M 16.71875 -22.421875 C 15.757812 -22.421875 14.929688 -22.257812 14.234375 -21.9375 C 13.546875 -21.625 12.984375 -21.21875 12.546875 -20.71875 C 12.109375 -20.226562 11.78125 -19.675781 11.5625 -19.0625 C 11.351562 -18.445312 11.226562 -17.820312 11.1875 -17.1875 L 21.359375 -18.859375 C 21.234375 -19.648438 20.796875 -20.441406 20.046875 -21.234375 C 19.296875 -22.023438 18.1875 -22.421875 16.71875 -22.421875 Z M 16.71875 -22.421875 "/></g></g></g><g fill="#00bf47" fill-opacity="1"><g transform="translate(236.370986, 83.689658)"><g><path d="M 13.203125 -0.0625 C 12.804688 0.0625 12.179688 0.179688 11.328125 0.296875 C 10.472656 0.410156 9.59375 0.46875 8.6875 0.46875 C 7.8125 0.46875 7.023438 0.410156 6.328125 0.296875 C 5.640625 0.179688 5.054688 -0.0507812 4.578125 -0.40625 C 4.097656 -0.769531 3.726562 -1.257812 3.46875 -1.875 C 3.21875 -2.488281 3.09375 -3.289062 3.09375 -4.28125 L 3.09375 -22.125 C 3.09375 -23.039062 3.257812 -23.820312 3.59375 -24.46875 C 3.9375 -25.125 4.425781 -25.710938 5.0625 -26.234375 C 5.695312 -26.742188 6.476562 -27.207031 7.40625 -27.625 C 8.332031 -28.039062 9.332031 -28.40625 10.40625 -28.71875 C 11.476562 -29.039062 12.585938 -29.289062 13.734375 -29.46875 C 14.890625 -29.65625 16.039062 -29.75 17.1875 -29.75 C 19.09375 -29.75 20.597656 -29.378906 21.703125 -28.640625 C 22.816406 -27.910156 23.375 -26.710938 23.375 -25.046875 C 23.375 -24.484375 23.296875 -23.9375 23.140625 -23.40625 C 22.984375 -22.875 22.785156 -22.390625 22.546875 -21.953125 C 21.710938 -21.953125 20.859375 -21.910156 19.984375 -21.828125 C 19.109375 -21.753906 18.253906 -21.632812 17.421875 -21.46875 C 16.597656 -21.3125 15.816406 -21.144531 15.078125 -20.96875 C 14.347656 -20.789062 13.722656 -20.582031 13.203125 -20.34375 Z M 13.203125 -0.0625 "/></g></g></g><g fill="#00bf47" fill-opacity="1"><g transform="translate(260.817355, 83.689658)"><g><path d="M 1.84375 -14.453125 C 1.84375 -17.066406 2.238281 -19.335938 3.03125 -21.265625 C 3.820312 -23.191406 4.921875 -24.785156 6.328125 -26.046875 C 7.742188 -27.316406 9.390625 -28.257812 11.265625 -28.875 C 13.148438 -29.488281 15.1875 -29.796875 17.375 -29.796875 C 18.164062 -29.796875 18.9375 -29.726562 19.6875 -29.59375 C 20.4375 -29.457031 21.050781 -29.289062 21.53125 -29.09375 L 21.53125 -38.71875 C 21.925781 -38.84375 22.5625 -38.972656 23.4375 -39.109375 C 24.3125 -39.242188 25.203125 -39.3125 26.109375 -39.3125 C 26.984375 -39.3125 27.765625 -39.253906 28.453125 -39.140625 C 29.148438 -39.023438 29.738281 -38.785156 30.21875 -38.421875 C 30.695312 -38.066406 31.050781 -37.582031 31.28125 -36.96875 C 31.519531 -36.351562 31.640625 -35.550781 31.640625 -34.5625 L 31.640625 -6.359375 C 31.640625 -4.492188 30.769531 -3.007812 29.03125 -1.90625 C 27.875 -1.144531 26.382812 -0.476562 24.5625 0.09375 C 22.738281 0.664062 20.640625 0.953125 18.265625 0.953125 C 15.679688 0.953125 13.367188 0.597656 11.328125 -0.109375 C 9.285156 -0.828125 7.5625 -1.859375 6.15625 -3.203125 C 4.75 -4.554688 3.675781 -6.175781 2.9375 -8.0625 C 2.207031 -9.945312 1.84375 -12.078125 1.84375 -14.453125 Z M 18.734375 -21.890625 C 16.597656 -21.890625 14.953125 -21.273438 13.796875 -20.046875 C 12.648438 -18.816406 12.078125 -16.953125 12.078125 -14.453125 C 12.078125 -11.992188 12.609375 -10.140625 13.671875 -8.890625 C 14.742188 -7.640625 16.296875 -7.015625 18.328125 -7.015625 C 19.035156 -7.015625 19.675781 -7.125 20.25 -7.34375 C 20.820312 -7.5625 21.269531 -7.8125 21.59375 -8.09375 L 21.59375 -21.171875 C 20.800781 -21.648438 19.847656 -21.890625 18.734375 -21.890625 Z M 18.734375 -21.890625 "/></g></g></g><g fill="#00bf47" fill-opacity="1"><g transform="translate(295.672773, 83.689658)"><g><path d="M 18.375 0.953125 C 16.039062 0.953125 13.867188 0.625 11.859375 -0.03125 C 9.859375 -0.6875 8.113281 -1.664062 6.625 -2.96875 C 5.144531 -4.28125 3.976562 -5.925781 3.125 -7.90625 C 2.269531 -9.894531 1.84375 -12.21875 1.84375 -14.875 C 1.84375 -17.488281 2.269531 -19.738281 3.125 -21.625 C 3.976562 -23.507812 5.097656 -25.054688 6.484375 -26.265625 C 7.867188 -27.472656 9.453125 -28.363281 11.234375 -28.9375 C 13.023438 -29.507812 14.851562 -29.796875 16.71875 -29.796875 C 18.820312 -29.796875 20.734375 -29.476562 22.453125 -28.84375 C 24.179688 -28.207031 25.671875 -27.332031 26.921875 -26.21875 C 28.171875 -25.113281 29.140625 -23.785156 29.828125 -22.234375 C 30.523438 -20.691406 30.875 -19.007812 30.875 -17.1875 C 30.875 -15.84375 30.492188 -14.8125 29.734375 -14.09375 C 28.984375 -13.382812 27.9375 -12.929688 26.59375 -12.734375 L 11.890625 -10.53125 C 12.328125 -9.21875 13.21875 -8.234375 14.5625 -7.578125 C 15.914062 -6.929688 17.46875 -6.609375 19.21875 -6.609375 C 20.84375 -6.609375 22.378906 -6.816406 23.828125 -7.234375 C 25.273438 -7.648438 26.453125 -8.132812 27.359375 -8.6875 C 27.992188 -8.289062 28.53125 -7.734375 28.96875 -7.015625 C 29.40625 -6.304688 29.625 -5.554688 29.625 -4.765625 C 29.625 -2.972656 28.789062 -1.640625 27.125 -0.765625 C 25.851562 -0.0976562 24.425781 0.351562 22.84375 0.59375 C 21.257812 0.832031 19.769531 0.953125 18.375 0.953125 Z M 16.71875 -22.421875 C 15.757812 -22.421875 14.929688 -22.257812 14.234375 -21.9375 C 13.546875 -21.625 12.984375 -21.21875 12.546875 -20.71875 C 12.109375 -20.226562 11.78125 -19.675781 11.5625 -19.0625 C 11.351562 -18.445312 11.226562 -17.820312 11.1875 -17.1875 L 21.359375 -18.859375 C 21.234375 -19.648438 20.796875 -20.441406 20.046875 -21.234375 C 19.296875 -22.023438 18.1875 -22.421875 16.71875 -22.421875 Z M 16.71875 -22.421875 "/></g></g></g><g clip-path="url(#fe686e96fd)"><g clip-path="url(#0193e06f9d)"><g clip-path="url(#434cb46f7c)"><path fill="#00bf47" d="M 199.660156 75.726562 C 191.203125 88.394531 181.382812 89.75 172.277344 85.5 C 172.402344 83.632812 172.625 81.617188 172.984375 79.5 C 175.324219 65.632812 193.976562 43.175781 194.199219 42.910156 C 193.976562 43.078125 175.410156 57.378906 168.613281 75.875 C 167.75 78.222656 167.152344 80.328125 166.769531 82.21875 C 157.378906 75.378906 153.207031 65.09375 162.617188 51 C 172.421875 36.308594 203.496094 29.863281 203.496094 29.863281 C 203.496094 29.863281 209.464844 61.03125 199.660156 75.726562 Z M 199.660156 75.726562 " fill-opacity="1" fill-rule="nonzero"/></g></g></g><g clip-path="url(#aaeb3cdb5a)"><g clip-path="url(#f04b84a7fe)"><g clip-path="url(#7a2b6321dc)"><path fill="#24402a" d="M 180.730469 34.152344 C 173.824219 37.105469 166.710938 41.105469 162.160156 46.257812 C 156.054688 35.851562 150.953125 24.761719 150.835938 24.441406 C 150.878906 24.777344 153.246094 36.988281 159.640625 49.648438 C 155.855469 55.609375 154.523438 60.875 154.992188 65.472656 C 150.507812 63.722656 146.382812 59.792969 143.019531 52.917969 C 135.679688 37.914062 145.207031 9.449219 145.207031 9.449219 C 145.207031 9.449219 173.191406 19.292969 180.730469 34.152344 Z M 180.730469 34.152344 " fill-opacity="1" fill-rule="nonzero"/></g></g></g><g clip-path="url(#5a74a20ced)"><path stroke-linecap="butt" transform="matrix(0.6761, 0, 0, 0.6761, 8.498494, 25.690668)" fill="none" stroke-linejoin="miter" d="M 14.290286 86.255212 C 11.765466 86.255212 9.772186 85.527232 8.293115 84.065493 C 6.837154 82.5922 6.103396 80.593142 6.103396 78.074099 L 6.103396 32.604214 C 6.75049 32.488661 7.773129 32.332665 9.177091 32.130449 C 10.592608 31.916677 11.944572 31.806902 13.232982 31.806902 C 14.579167 31.806902 15.769358 31.916677 16.803552 32.130449 C 17.831969 32.332665 18.698612 32.696655 19.397704 33.222419 C 20.102574 33.742405 20.62256 34.470385 20.969217 35.417915 C 21.32743 36.348113 21.506536 37.578746 21.506536 39.109816 L 21.506536 73.862213 L 41.653104 73.862213 C 42.069093 74.509306 42.444639 75.37595 42.791296 76.462143 C 43.149509 77.53678 43.328615 78.663417 43.328615 79.836274 C 43.328615 82.181989 42.825962 83.845944 41.826433 84.816584 C 40.83846 85.775669 39.521162 86.255212 37.87454 86.255212 Z M 49.747553 31.356247 C 49.747553 29.13764 50.492866 27.265691 51.983493 25.751954 C 53.485674 24.215106 55.473176 23.45246 57.934443 23.45246 C 60.39571 23.45246 62.371657 24.215106 63.862284 25.751954 C 65.35291 27.265691 66.098223 29.13764 66.098223 31.356247 C 66.098223 33.592187 65.35291 35.475692 63.862284 37.006762 C 62.371657 38.520499 60.39571 39.283145 57.934443 39.283145 C 55.473176 39.283145 53.485674 38.520499 51.983493 37.006762 C 50.492866 35.475692 49.747553 33.592187 49.747553 31.356247 Z M 65.410686 85.914332 C 64.763593 86.029885 63.810285 86.185881 62.550764 86.388097 C 61.291242 86.601869 60.00861 86.711644 58.708645 86.711644 C 57.420235 86.711644 56.258933 86.613425 55.224739 86.428541 C 54.207877 86.255212 53.352789 85.908555 52.647919 85.377014 C 51.948827 84.845472 51.405731 84.129047 51.01863 83.227738 C 50.631529 82.314874 50.43509 81.124684 50.43509 79.662945 L 50.43509 43.859021 C 51.082184 43.743469 52.035491 43.587473 53.295013 43.385256 C 54.56609 43.171484 55.848722 43.061709 57.137132 43.061709 C 58.425541 43.061709 59.581066 43.154151 60.597927 43.339035 C 61.626344 43.512364 62.492987 43.864799 63.197857 44.39634 C 63.896949 44.910549 64.440046 45.626974 64.827147 46.539838 C 65.214247 47.446925 65.410686 48.631337 65.410686 50.110408 Z M 102.006145 58.892394 C 102.006145 57.072443 101.491936 55.74359 100.46352 54.900057 C 99.429325 54.050747 98.036918 53.62898 96.274744 53.62898 C 95.096109 53.62898 93.940584 53.779198 92.790837 54.079635 C 91.664201 54.368516 90.682005 54.801838 89.850028 55.391155 L 89.850028 85.914332 C 89.26071 86.087661 88.342068 86.255212 87.082547 86.428541 C 85.817248 86.613425 84.517283 86.711644 83.171097 86.711644 C 81.882687 86.711644 80.721385 86.613425 79.692968 86.428541 C 78.676107 86.255212 77.809463 85.908555 77.093038 85.377014 C 76.388168 84.845472 75.845072 84.129047 75.457971 83.227738 C 75.088203 82.314874 74.90332 81.124684 74.90332 79.662945 L 74.90332 53.26499 C 74.90332 51.687699 75.238422 50.39929 75.908626 49.399761 C 76.584608 48.394455 77.509027 47.487368 78.681884 46.672723 C 80.669386 45.268761 83.176874 44.13057 86.198571 43.258149 C 89.220267 42.368395 92.577065 41.923518 96.274744 41.923518 C 102.901676 41.923518 108.009094 43.379479 111.585442 46.285623 C 115.167568 49.174434 116.958631 53.207214 116.958631 58.378186 L 116.958631 85.914332 C 116.369313 86.087661 115.444894 86.255212 114.185372 86.428541 C 112.92585 86.613425 111.625885 86.711644 110.279699 86.711644 C 108.973957 86.711644 107.806877 86.613425 106.77846 86.428541 C 105.761599 86.255212 104.900733 85.908555 104.201641 85.377014 C 103.496771 84.845472 102.953675 84.129047 102.566574 83.227738 C 102.196806 82.314874 102.006145 81.124684 102.006145 79.662945 Z M 148.804883 87.416514 C 145.33831 87.416514 142.125952 86.931194 139.162032 85.954776 C 136.198112 84.984135 133.609737 83.528174 131.408463 81.598449 C 129.212967 79.662945 127.491236 77.230566 126.231714 74.295534 C 124.972192 71.360502 124.342432 67.928595 124.342432 64.005589 C 124.342432 60.14036 124.972192 56.818228 126.231714 54.039191 C 127.491236 51.2486 129.143636 48.954884 131.188914 47.163821 C 133.251525 45.372758 135.603017 44.05546 138.237613 43.211928 C 140.872208 42.351062 143.570358 41.923518 146.332061 41.923518 C 149.440422 41.923518 152.271457 42.397283 154.819388 43.339035 C 157.367319 44.27501 159.568593 45.56342 161.411655 47.210042 C 163.260494 48.839332 164.699122 50.803723 165.733316 53.091661 C 166.761733 55.385377 167.275941 57.875532 167.275941 60.567904 C 167.275941 62.572739 166.721289 64.103809 165.600431 65.166892 C 164.48535 66.212641 162.931169 66.877068 160.93789 67.160171 L 139.202476 70.424528 C 139.849569 72.360031 141.166867 73.815992 143.154369 74.786632 C 145.159204 75.745718 147.45292 76.22526 150.029739 76.22526 C 152.43323 76.22526 154.703836 75.919046 156.835778 75.300841 C 158.985054 74.688413 160.735673 73.971988 162.081859 73.157343 C 163.023611 73.740883 163.820923 74.567083 164.462239 75.624387 C 165.109333 76.670137 165.427102 77.779441 165.427102 78.952298 C 165.427102 81.604226 164.196469 83.574395 161.735202 84.862805 C 159.857474 85.850779 157.748642 86.520983 155.39715 86.879195 C 153.051436 87.237408 150.850162 87.416514 148.804883 87.416514 Z M 146.332061 52.837446 C 144.933877 52.837446 143.714798 53.074329 142.680604 53.542316 C 141.652187 54.004526 140.814432 54.605398 140.167338 55.350712 C 139.526022 56.078692 139.040702 56.904892 138.711378 57.817756 C 138.393608 58.719065 138.208725 59.637707 138.150948 60.567904 L 153.184321 58.118193 C 153.01677 56.945335 152.369676 55.772478 151.254595 54.599621 C 150.151069 53.420986 148.510225 52.837446 146.332061 52.837446 Z M 192.784143 76.508364 C 193.783671 76.508364 194.887197 76.404366 196.088942 76.207927 C 197.290688 75.988378 198.180442 75.705274 198.752426 75.347062 L 198.752426 68.321473 L 192.437485 68.835682 C 190.790863 68.951234 189.438899 69.303669 188.381595 69.892986 C 187.318512 70.476526 186.786971 71.360502 186.786971 72.53336 C 186.786971 73.706217 187.237625 74.665302 188.144712 75.410615 C 189.057576 76.138596 190.605979 76.508364 192.784143 76.508364 Z M 192.073495 41.923518 C 195.239632 41.923518 198.122665 42.247065 200.728373 42.888381 C 203.351413 43.535474 205.581576 44.51767 207.430415 45.834968 C 209.279254 47.152266 210.694771 48.827776 211.682744 50.861499 C 212.688051 52.877889 213.184926 55.264047 213.184926 58.014195 L 213.184926 77.73322 C 213.184926 79.246957 212.757382 80.494923 211.896516 81.465563 C 211.052984 82.441982 210.053455 83.279737 208.892153 83.978829 C 205.067367 86.272545 199.699956 87.416514 192.784143 87.416514 C 189.675782 87.416514 186.873635 87.121855 184.38348 86.538316 C 181.893325 85.948998 179.749827 85.0708 177.958764 83.892165 C 176.173479 82.719307 174.78685 81.222903 173.816209 79.402952 C 172.857124 77.588779 172.377581 75.474169 172.377581 73.070679 C 172.377581 69.014788 173.579327 65.912205 175.982818 63.745597 C 178.392086 61.573211 182.112875 60.215469 187.156739 59.689706 L 198.665762 58.46485 L 198.665762 57.840867 C 198.665762 56.136468 197.914671 54.91739 196.412489 54.18941 C 194.921863 53.461429 192.772587 53.091661 189.970441 53.091661 C 187.734501 53.091661 185.556337 53.328544 183.43595 53.802309 C 181.332896 54.276074 179.437836 54.859614 177.744992 55.564484 C 176.970791 55.032942 176.323697 54.224075 175.792156 53.137882 C 175.277948 52.045912 175.017955 50.919276 175.017955 49.740641 C 175.017955 48.226904 175.381945 47.013603 176.115703 46.112294 C 176.843683 45.193652 177.97032 44.413673 179.484057 43.772357 C 181.188455 43.125263 183.204845 42.663054 185.521672 42.374172 C 187.844276 42.073736 190.028217 41.923518 192.073495 41.923518 Z M 192.073495 41.923518 " stroke="#3d3b2b" stroke-width="6.598815" stroke-opacity="1" stroke-miterlimit="4"/></g><g fill="#d6ce99" fill-opacity="1"><g transform="translate(8.762596, 83.835264)"><g><path d="M 9.40625 0.171875 C 7.695312 0.171875 6.34375 -0.320312 5.34375 -1.3125 C 4.351562 -2.300781 3.859375 -3.648438 3.859375 -5.359375 L 3.859375 -36.109375 C 4.296875 -36.179688 4.988281 -36.285156 5.9375 -36.421875 C 6.894531 -36.566406 7.8125 -36.640625 8.6875 -36.640625 C 9.59375 -36.640625 10.394531 -36.566406 11.09375 -36.421875 C 11.789062 -36.285156 12.375 -36.039062 12.84375 -35.6875 C 13.320312 -35.332031 13.679688 -34.835938 13.921875 -34.203125 C 14.160156 -33.566406 14.28125 -32.734375 14.28125 -31.703125 L 14.28125 -8.203125 L 27.890625 -8.203125 C 28.171875 -7.765625 28.429688 -7.179688 28.671875 -6.453125 C 28.910156 -5.722656 29.03125 -4.957031 29.03125 -4.15625 C 29.03125 -2.570312 28.691406 -1.453125 28.015625 -0.796875 C 27.335938 -0.148438 26.445312 0.171875 25.34375 0.171875 Z M 9.40625 0.171875 "/></g></g></g><g fill="#d6ce99" fill-opacity="1"><g transform="translate(39.273639, 83.835264)"><g><path d="M 2.859375 -36.9375 C 2.859375 -38.445312 3.363281 -39.71875 4.375 -40.75 C 5.382812 -41.78125 6.722656 -42.296875 8.390625 -42.296875 C 10.054688 -42.296875 11.394531 -41.78125 12.40625 -40.75 C 13.414062 -39.71875 13.921875 -38.445312 13.921875 -36.9375 C 13.921875 -35.425781 13.414062 -34.15625 12.40625 -33.125 C 11.394531 -32.101562 10.054688 -31.59375 8.390625 -31.59375 C 6.722656 -31.59375 5.382812 -32.101562 4.375 -33.125 C 3.363281 -34.15625 2.859375 -35.425781 2.859375 -36.9375 Z M 13.4375 -0.0625 C 13.007812 0.0195312 12.367188 0.128906 11.515625 0.265625 C 10.660156 0.398438 9.796875 0.46875 8.921875 0.46875 C 8.046875 0.46875 7.257812 0.410156 6.5625 0.296875 C 5.875 0.179688 5.289062 -0.0507812 4.8125 -0.40625 C 4.34375 -0.769531 3.976562 -1.257812 3.71875 -1.875 C 3.457031 -2.488281 3.328125 -3.289062 3.328125 -4.28125 L 3.328125 -28.5 C 3.765625 -28.570312 4.410156 -28.675781 5.265625 -28.8125 C 6.117188 -28.957031 6.984375 -29.03125 7.859375 -29.03125 C 8.722656 -29.03125 9.503906 -28.96875 10.203125 -28.84375 C 10.898438 -28.726562 11.484375 -28.488281 11.953125 -28.125 C 12.429688 -27.769531 12.796875 -27.285156 13.046875 -26.671875 C 13.304688 -26.054688 13.4375 -25.253906 13.4375 -24.265625 Z M 13.4375 -0.0625 "/></g></g></g><g fill="#d6ce99" fill-opacity="1"><g transform="translate(56.045789, 83.835264)"><g><path d="M 21.421875 -18.328125 C 21.421875 -19.554688 21.070312 -20.457031 20.375 -21.03125 C 19.675781 -21.601562 18.734375 -21.890625 17.546875 -21.890625 C 16.753906 -21.890625 15.96875 -21.789062 15.1875 -21.59375 C 14.414062 -21.394531 13.753906 -21.097656 13.203125 -20.703125 L 13.203125 -0.0625 C 12.804688 0.0625 12.179688 0.179688 11.328125 0.296875 C 10.472656 0.410156 9.59375 0.46875 8.6875 0.46875 C 7.8125 0.46875 7.023438 0.410156 6.328125 0.296875 C 5.640625 0.179688 5.054688 -0.0507812 4.578125 -0.40625 C 4.097656 -0.769531 3.726562 -1.257812 3.46875 -1.875 C 3.21875 -2.488281 3.09375 -3.289062 3.09375 -4.28125 L 3.09375 -22.125 C 3.09375 -23.195312 3.320312 -24.066406 3.78125 -24.734375 C 4.238281 -25.410156 4.863281 -26.03125 5.65625 -26.59375 C 7 -27.539062 8.691406 -28.3125 10.734375 -28.90625 C 12.773438 -29.5 15.046875 -29.796875 17.546875 -29.796875 C 22.023438 -29.796875 25.472656 -28.8125 27.890625 -26.84375 C 30.316406 -24.882812 31.53125 -22.160156 31.53125 -18.671875 L 31.53125 -0.0625 C 31.132812 0.0625 30.507812 0.179688 29.65625 0.296875 C 28.800781 0.410156 27.914062 0.46875 27 0.46875 C 26.132812 0.46875 25.351562 0.410156 24.65625 0.296875 C 23.957031 0.179688 23.367188 -0.0507812 22.890625 -0.40625 C 22.421875 -0.769531 22.054688 -1.257812 21.796875 -1.875 C 21.546875 -2.488281 21.421875 -3.289062 21.421875 -4.28125 Z M 21.421875 -18.328125 "/></g></g></g><g fill="#d6ce99" fill-opacity="1"><g transform="translate(90.720134, 83.835264)"><g><path d="M 18.375 0.953125 C 16.039062 0.953125 13.867188 0.625 11.859375 -0.03125 C 9.859375 -0.6875 8.113281 -1.664062 6.625 -2.96875 C 5.144531 -4.28125 3.976562 -5.925781 3.125 -7.90625 C 2.269531 -9.894531 1.84375 -12.21875 1.84375 -14.875 C 1.84375 -17.488281 2.269531 -19.738281 3.125 -21.625 C 3.976562 -23.507812 5.097656 -25.054688 6.484375 -26.265625 C 7.867188 -27.472656 9.453125 -28.363281 11.234375 -28.9375 C 13.023438 -29.507812 14.851562 -29.796875 16.71875 -29.796875 C 18.820312 -29.796875 20.734375 -29.476562 22.453125 -28.84375 C 24.179688 -28.207031 25.671875 -27.332031 26.921875 -26.21875 C 28.171875 -25.113281 29.140625 -23.785156 29.828125 -22.234375 C 30.523438 -20.691406 30.875 -19.007812 30.875 -17.1875 C 30.875 -15.84375 30.492188 -14.8125 29.734375 -14.09375 C 28.984375 -13.382812 27.9375 -12.929688 26.59375 -12.734375 L 11.890625 -10.53125 C 12.328125 -9.21875 13.21875 -8.234375 14.5625 -7.578125 C 15.914062 -6.929688 17.46875 -6.609375 19.21875 -6.609375 C 20.84375 -6.609375 22.378906 -6.816406 23.828125 -7.234375 C 25.273438 -7.648438 26.453125 -8.132812 27.359375 -8.6875 C 27.992188 -8.289062 28.53125 -7.734375 28.96875 -7.015625 C 29.40625 -6.304688 29.625 -5.554688 29.625 -4.765625 C 29.625 -2.972656 28.789062 -1.640625 27.125 -0.765625 C 25.851562 -0.0976562 24.425781 0.351562 22.84375 0.59375 C 21.257812 0.832031 19.769531 0.953125 18.375 0.953125 Z M 16.71875 -22.421875 C 15.757812 -22.421875 14.929688 -22.257812 14.234375 -21.9375 C 13.546875 -21.625 12.984375 -21.21875 12.546875 -20.71875 C 12.109375 -20.226562 11.78125 -19.675781 11.5625 -19.0625 C 11.351562 -18.445312 11.226562 -17.820312 11.1875 -17.1875 L 21.359375 -18.859375 C 21.234375 -19.648438 20.796875 -20.441406 20.046875 -21.234375 C 19.296875 -22.023438 18.1875 -22.421875 16.71875 -22.421875 Z M 16.71875 -22.421875 "/></g></g></g><g fill="#d6ce99" fill-opacity="1"><g transform="translate(123.372308, 83.835264)"><g><path d="M 15.46875 -6.421875 C 16.144531 -6.421875 16.890625 -6.488281 17.703125 -6.625 C 18.515625 -6.769531 19.117188 -6.960938 19.515625 -7.203125 L 19.515625 -11.953125 L 15.234375 -11.59375 C 14.117188 -11.519531 13.203125 -11.285156 12.484375 -10.890625 C 11.773438 -10.492188 11.421875 -9.894531 11.421875 -9.09375 C 11.421875 -8.300781 11.726562 -7.65625 12.34375 -7.15625 C 12.957031 -6.664062 14 -6.421875 15.46875 -6.421875 Z M 14.984375 -29.796875 C 17.128906 -29.796875 19.082031 -29.578125 20.84375 -29.140625 C 22.613281 -28.710938 24.125 -28.050781 25.375 -27.15625 C 26.625 -26.257812 27.582031 -25.128906 28.25 -23.765625 C 28.925781 -22.398438 29.265625 -20.785156 29.265625 -18.921875 L 29.265625 -5.59375 C 29.265625 -4.5625 28.976562 -3.71875 28.40625 -3.0625 C 27.832031 -2.40625 27.148438 -1.84375 26.359375 -1.375 C 23.773438 0.175781 20.144531 0.953125 15.46875 0.953125 C 13.363281 0.953125 11.46875 0.753906 9.78125 0.359375 C 8.09375 -0.0351562 6.644531 -0.628906 5.4375 -1.421875 C 4.226562 -2.222656 3.296875 -3.238281 2.640625 -4.46875 C 1.992188 -5.695312 1.671875 -7.125 1.671875 -8.75 C 1.671875 -11.476562 2.484375 -13.578125 4.109375 -15.046875 C 5.734375 -16.515625 8.25 -17.425781 11.65625 -17.78125 L 19.453125 -18.625 L 19.453125 -19.03125 C 19.453125 -20.1875 18.945312 -21.007812 17.9375 -21.5 C 16.925781 -22 15.46875 -22.25 13.5625 -22.25 C 12.050781 -22.25 10.582031 -22.085938 9.15625 -21.765625 C 7.726562 -21.453125 6.441406 -21.054688 5.296875 -20.578125 C 4.773438 -20.929688 4.335938 -21.472656 3.984375 -22.203125 C 3.628906 -22.941406 3.453125 -23.707031 3.453125 -24.5 C 3.453125 -25.53125 3.695312 -26.351562 4.1875 -26.96875 C 4.6875 -27.582031 5.453125 -28.109375 6.484375 -28.546875 C 7.628906 -28.984375 8.984375 -29.300781 10.546875 -29.5 C 12.117188 -29.695312 13.597656 -29.796875 14.984375 -29.796875 Z M 14.984375 -29.796875 "/></g></g></g></svg>