<svg id="mastercard" xmlns="http://www.w3.org/2000/svg" xmlns:xlink="http://www.w3.org/1999/xlink" width="70" height="49.604" viewBox="0 0 70 49.604">
  <defs>
    <clipPath id="clip-path">
      <rect id="Rectangle_199" data-name="Rectangle 199" width="70" height="49.604" transform="translate(0 0)" fill="none"/>
    </clipPath>
  </defs>
  <rect id="Rectangle_197" data-name="Rectangle 197" width="70" height="49.604" fill="#fff"/>
  <rect id="Rectangle_198" data-name="Rectangle 198" width="16.534" height="26" transform="translate(26.715 11.802)" fill="#ff5f00"/>
  <g id="Group_220" data-name="Group 220">
    <g id="Group_219" data-name="Group 219" clip-path="url(#clip-path)">
      <path id="Path_171" data-name="Path 171" d="M28.666,24.8a16.5,16.5,0,0,1,6.315-13,16.535,16.535,0,1,0,0,26,16.5,16.5,0,0,1-6.315-13" fill="#eb001b"/>
      <path id="Path_172" data-name="Path 172" d="M61.733,24.8a16.534,16.534,0,0,1-26.752,13,16.537,16.537,0,0,0,0-26,16.534,16.534,0,0,1,26.752,13" fill="#f79e1b"/>
      <path id="Path_173" data-name="Path 173" d="M60.155,35.048v-.533h.214v-.108h-.547v.108h.214v.532Zm1.061,0v-.642h-.168l-.192.441-.193-.441h-.168v.642h.118v-.484l.18.418h.123l.181-.418v.485Z" fill="#f79e1b"/>
    </g>
  </g>
</svg>
