<svg id="paypal" xmlns="http://www.w3.org/2000/svg" xmlns:xlink="http://www.w3.org/1999/xlink" width="70" height="49.604" viewBox="0 0 70 49.604">
  <defs>
    <clipPath id="clip-path">
      <rect id="Rectangle_182" data-name="Rectangle 182" width="70" height="49.604" fill="none"/>
    </clipPath>
  </defs>
  <g id="Group_188" data-name="Group 188" clip-path="url(#clip-path)">
    <path id="Path_157" data-name="Path 157" d="M10.167,34.071c2.244,0,4.313,1.216,4.03,4.25-.336,3.6-2.274,5.6-5.322,5.608H6.215c-.383,0-.568.311-.668.953l-.513,3.273c-.078.494-.331.738-.706.738H1.851c-.395,0-.533-.253-.445-.817l2.048-13.12c.1-.645.347-.885.785-.885ZM6.132,41.094H8.15c1.261-.047,2.1-.921,2.184-2.5a1.523,1.523,0,0,0-1.652-1.664l-1.9.008Zm14.8,6.793c.226-.205.457-.313.423-.059l-.08.608c-.042.316.084.486.38.486h2.2c.37,0,.551-.15.642-.722l1.356-8.51c.068-.428-.035-.638-.36-.638H23.071c-.218,0-.324.123-.381.456l-.09.524c-.047.273-.172.321-.288.045-.411-.972-1.458-1.408-2.926-1.377a6.054,6.054,0,0,0-5.926,5.948,4.09,4.09,0,0,0,4.054,4.56,4.373,4.373,0,0,0,3.415-1.322M19.088,46.58a2.21,2.21,0,0,1-2.266-2.594,3.159,3.159,0,0,1,3.038-2.593,2.21,2.21,0,0,1,2.267,2.593,3.16,3.16,0,0,1-3.038,2.594m11.071-7.555H27.936c-.461,0-.648.337-.5.766L30.2,47.9l-2.729,3.858c-.228.322-.052.616.269.616h2.508A.768.768,0,0,0,31,52.012l8.519-12.221c.262-.376.138-.77-.292-.771l-2.371,0c-.407,0-.57.16-.8.5L32.5,44.672l-1.581-5.164a.683.683,0,0,0-.757-.483" transform="translate(-0.747 -18.422)" fill="#113984"/>
    <path id="Path_158" data-name="Path 158" d="M93.373,34.071c2.244,0,4.314,1.217,4.03,4.25-.336,3.6-2.274,5.6-5.323,5.607H89.422c-.384,0-.568.312-.668.954l-.513,3.273c-.077.494-.331.738-.706.738H85.057c-.395,0-.533-.252-.445-.817l2.047-13.12c.1-.645.347-.885.785-.885Zm-4.034,7.023h2.017c1.261-.048,2.1-.921,2.184-2.5a1.523,1.523,0,0,0-1.652-1.664l-1.9.009Zm14.8,6.793c.226-.205.457-.313.423-.059l-.08.608c-.042.317.085.486.38.486h2.2c.37,0,.551-.15.643-.723l1.356-8.51c.068-.428-.035-.637-.361-.637h-2.419c-.218,0-.324.122-.381.456l-.09.524c-.047.273-.172.321-.288.046-.411-.972-1.457-1.408-2.926-1.378a6.054,6.054,0,0,0-5.926,5.948,4.09,4.09,0,0,0,4.054,4.56,4.372,4.372,0,0,0,3.415-1.322m-1.841-1.307a2.21,2.21,0,0,1-2.267-2.594,3.159,3.159,0,0,1,3.038-2.593,2.21,2.21,0,0,1,2.267,2.593,3.159,3.159,0,0,1-3.038,2.594m10.148,2.358H109.9a.3.3,0,0,1-.311-.351l2.234-14.134a.438.438,0,0,1,.422-.351h2.539a.3.3,0,0,1,.311.351l-2.233,14.134a.439.439,0,0,1-.423.351" transform="translate(-45.737 -18.422)" fill="#009de2"/>
  </g>
</svg>
