<svg id="visa" xmlns="http://www.w3.org/2000/svg" xmlns:xlink="http://www.w3.org/1999/xlink" width="70" height="49.604" viewBox="0 0 70 49.604">
  <defs>
    <clipPath id="clip-path">
      <rect id="Rectangle_185" data-name="Rectangle 185" width="70" height="49.604" fill="none"/>
    </clipPath>
  </defs>
  <rect id="Rectangle_183" data-name="Rectangle 183" width="70" height="49.604" fill="#fff"/>
  <rect id="Rectangle_184" data-name="Rectangle 184" width="70" height="49.604" fill="#fff"/>
  <g id="Group_191" data-name="Group 191">
    <g id="Group_190" data-name="Group 190" clip-path="url(#clip-path)">
      <path id="Path_159" data-name="Path 159" d="M31.97,32.42,23.8,51.91H18.471l-4.02-15.554a2.136,2.136,0,0,0-1.2-1.713,21.135,21.135,0,0,0-4.974-1.657L8.4,32.42h8.579A2.35,2.35,0,0,1,19.3,34.407l2.123,11.278,5.247-13.265h5.3ZM52.851,45.547c.022-5.144-7.113-5.428-7.064-7.725.016-.7.681-1.443,2.139-1.633a9.512,9.512,0,0,1,4.971.872l.886-4.133a13.547,13.547,0,0,0-4.716-.864c-4.983,0-8.491,2.649-8.52,6.443-.032,2.806,2.5,4.371,4.414,5.3,1.965.955,2.624,1.568,2.617,2.422-.014,1.308-1.567,1.884-3.019,1.907a10.564,10.564,0,0,1-5.177-1.23l-.914,4.27a15.291,15.291,0,0,0,5.607,1.036c5.3,0,8.762-2.617,8.778-6.668M66.011,51.91h4.663L66.6,32.42H62.3a2.294,2.294,0,0,0-2.145,1.43L52.589,51.91h5.294L58.934,49H65.4ZM60.385,45l2.654-7.318L64.566,45ZM39.173,32.42,35,51.91H29.962l4.171-19.49Z" transform="translate(-4.476 -17.337)" fill="#1434cb"/>
    </g>
  </g>
</svg>
